<?xml version="1.0" encoding="utf-8"?>
<!-- Generator: Adobe Illustrator 27.8.0, SVG Export Plug-In . SVG Version: 6.00 Build 0)  -->
<svg version="1.1" id="Ebene_1" xmlns="http://www.w3.org/2000/svg" xmlns:xlink="http://www.w3.org/1999/xlink" x="0px" y="0px"
	 viewBox="0 0 225 148" style="enable-background:new 0 0 225 148;" xml:space="preserve">
<style type="text/css">
	.st0{fill:#FFFFFF;}
	.st1{fill-rule:evenodd;clip-rule:evenodd;}
</style>
<g id="box">
	<rect y="0" class="st0" width="225" height="148"/>
</g>
<path id="path4330" class="st1" d="M122.6,73c-1.9,1.1-3.8,1.9-6.4,1.9c-3,0-5.3-1.5-5.6-4.5h13.5c0-6-1.9-10.5-9.4-10.5
	c-6,0-9,4.1-9,9.4c0,5.6,3.8,9,10.1,9c2.6,0,4.9-0.8,6.8-1.5V73L122.6,73z M110.6,67c0.4-2.3,1.5-4.1,4.5-4.1s4.1,1.9,4.1,4.1H110.6
	z"/>
<path id="path4334" d="M126.4,77.5h5.3v-8.6l0,0l6.8,8.6h6.4l-7.9-9.8l6.8-7.9H138l-6.4,7.1l0,0V53.5h-5.3L126.4,77.5L126.4,77.5z"
	/>
<path id="path4338" class="st1" d="M148.9,72.2c0-2.6,3.4-3,5.6-3h2.3c0,1.5-0.4,2.6-1.1,3.8s-1.9,1.5-3.4,1.5
	C150.4,74.5,148.9,73.7,148.9,72.2 M146.7,64.7c1.9-1.1,3.8-1.9,6-1.9c3,0,4.5,1.1,4.5,3.8h-2.6c-2.3,0-4.5,0-6.4,1.1
	s-3.4,2.3-3.4,4.9c0,3,3.4,5.3,6.8,5.3c2.3,0,4.9-1.1,6-3l0,0c0,0.4,0,1.9,0.4,2.6h4.5c0-1.5-0.4-2.6-0.4-4.1c0-1.1,0-2.6,0-4.1
	v-2.6c0-5.3-2.6-7.5-8.3-7.5c-2.3,0-4.9,0.4-6.8,1.5C146.3,60.6,146.7,64.7,146.7,64.7z"/>
<path id="path4342" d="M81.7,58H90c4.5,0,9,2.3,9,7.5c0,5.3-4.5,7.5-9,7.5h-3.4V62.5h-4.9v15h7.1c8.3,0,15.4-2.6,15.4-12
	s-7.5-12-15.4-12h-7.1V58z"/>
<path id="path4344" d="M74.2,67h4.9v10.5h-4.9V67z"/>
<path id="path4346" d="M66.7,71.5h4.9v6h-4.9V71.5z"/>
</svg>
