<?xml version="1.0" encoding="utf-8"?>
<!-- Generator: Adobe Illustrator 27.8.0, SVG Export Plug-In . SVG Version: 6.00 Build 0)  -->
<svg version="1.1" id="Ebene_1" xmlns="http://www.w3.org/2000/svg" xmlns:xlink="http://www.w3.org/1999/xlink" x="0px" y="0px"
	 viewBox="0 0 225 148" style="enable-background:new 0 0 225 148;" xml:space="preserve">
<style type="text/css">
	.st0{fill:#FFFFFF;}
	.st1{fill-rule:evenodd;clip-rule:evenodd;fill:#FFFFFF;}
	.st2{fill:none;}
</style>
<g id="box">
	<rect y="0" class="st0" width="225" height="148"/>
</g>
<path d="M126.4,63c0,0.2,0,0.3,0,0.5c0,7.1-5.7,12.8-12.8,12.8c-7.1,0-12.8-5.8-12.8-12.8c0-0.2,0-0.3,0-0.5h-4.7v17.8h35V63H126.4"
	/>
<path d="M102,63.4c0-6.4,5.2-11.6,11.6-11.6c6.4,0,11.6,5.2,11.6,11.6c0,6.4-5.2,11.6-11.6,11.6C107.2,75,102,69.8,102,63.4"/>
<polygon class="st0" points="113.6,52.9 113.4,53.6 112.6,53.6 113.3,54.1 113,54.9 113.6,54.4 114.3,54.9 114,54.1 114.6,53.6 
	113.9,53.6 "/>
<polygon class="st0" points="109,54.2 108.7,54.9 108,54.9 108.6,55.4 108.3,56.1 109,55.7 109.6,56.1 109.3,55.4 110,54.9 
	109.2,54.9 "/>
<polygon class="st0" points="105.5,57.5 105.2,58.3 104.5,58.3 105.1,58.7 104.9,59.5 105.5,59 106.1,59.5 105.9,58.7 106.5,58.3 
	105.7,58.3 "/>
<polygon class="st0" points="104.1,62.4 103.9,63.2 103.1,63.2 103.7,63.6 103.5,64.4 104.1,63.9 104.7,64.4 104.5,63.6 105.1,63.2 
	104.3,63.2 "/>
<polygon class="st0" points="105.6,67 105.3,67.8 104.6,67.8 105.2,68.2 105,69 105.6,68.5 106.2,69 106,68.2 106.6,67.8 
	105.8,67.8 "/>
<polygon class="st0" points="108.8,70.4 108.5,71.1 107.8,71.1 108.4,71.6 108.2,72.3 108.8,71.9 109.4,72.3 109.2,71.6 109.8,71.1 
	109,71.1 "/>
<polygon class="st0" points="113.6,72 113.4,72.7 112.6,72.7 113.2,73.2 113,73.9 113.6,73.5 114.2,73.9 114,73.2 114.6,72.7 
	113.8,72.7 "/>
<polygon class="st0" points="118.4,70.4 118.2,71.2 117.4,71.2 118,71.6 117.8,72.4 118.4,71.9 119,72.4 118.8,71.6 119.4,71.2 
	118.6,71.2 "/>
<polygon class="st0" points="121.6,67.1 121.4,67.8 120.6,67.8 121.2,68.3 121,69 121.6,68.6 122.2,69 122,68.3 122.6,67.8 
	121.8,67.8 "/>
<polygon class="st0" points="123.1,62.5 122.9,63.2 122.1,63.2 122.7,63.7 122.5,64.4 123.1,64 123.7,64.4 123.5,63.7 124.1,63.2 
	123.3,63.2 "/>
<polygon class="st0" points="121.8,57.6 121.5,58.3 120.8,58.3 121.4,58.8 121.1,59.5 121.8,59.1 122.4,59.5 122.1,58.8 122.8,58.3 
	122,58.3 "/>
<polygon class="st0" points="118.3,54.2 118.1,54.9 117.3,54.9 117.9,55.4 117.7,56.2 118.3,55.7 118.9,56.2 118.7,55.4 119.3,54.9 
	118.5,54.9 "/>
<path class="st1" d="M114.2,68.6c-2.1,0-3.8-1.5-4.4-3.6h6.4l0.4-1h-7c0-0.2,0-0.3,0-0.5c0-0.2,0-0.4,0-0.5h7.4l0.4-1h-7.7
	c0.6-2.1,2.3-3.6,4.4-3.6c1.4,0,3,0.7,4,1.9l0.4-1c-1.2-1.2-2.9-1.9-4.5-1.9c-2.6,0-4.8,2-5.4,4.7h-1.4l-0.4,1h1.7
	c0,0.2,0,0.3,0,0.5c0,0.2,0,0.4,0,0.5h-1.3l-0.4,1h1.9c0.6,2.7,2.8,4.7,5.4,4.7c1.4,0,2.9-0.6,4-1.6v-1.3l0,0
	C117.1,67.9,115.6,68.6,114.2,68.6"/>
<path class="st2" d="M114.2,68.6c-2.1,0-3.8-1.5-4.4-3.6h6.4l0.4-1h-7c0-0.2,0-0.3,0-0.5c0-0.2,0-0.4,0-0.5h7.4l0.4-1h-7.7
	c0.6-2.1,2.3-3.6,4.4-3.6c1.4,0,3,0.7,4,1.9l0.4-1c-1.2-1.2-2.9-1.9-4.5-1.9c-2.6,0-4.8,2-5.4,4.7h-1.4l-0.4,1h1.7
	c0,0.2,0,0.3,0,0.5c0,0.2,0,0.4,0,0.5h-1.3l-0.4,1h1.9c0.6,2.7,2.8,4.7,5.4,4.7c1.4,0,2.9-0.6,4-1.6v-1.3l0,0
	C117.1,67.9,115.6,68.6,114.2,68.6z"/>
<polygon points="38.7,95.7 35.1,95.7 35.1,90.8 38.7,90.8 38.7,91.7 36.4,91.7 36.4,92.8 38.6,92.8 38.6,93.7 36.4,93.7 36.4,94.8 
	38.7,94.8 "/>
<path d="M46.5,90.8v2.8c0,1.6-1.1,2.2-2.4,2.2c-1.4,0-2.4-0.7-2.4-2.2v-2.8h1.2v2.8c0,0.7,0.5,1.1,1.2,1.1c0.6,0,1.2-0.3,1.2-1.2
	v-2.7H46.5"/>
<path d="M50.8,92.8h0.6c0.3,0,0.7-0.1,0.7-0.6c0-0.4-0.2-0.6-0.7-0.6h-0.6V92.8 M51.8,90.8c1,0,1.6,0.7,1.6,1.4
	c0,0.5-0.3,0.9-0.8,1.2c0.5,0.3,0.7,0.9,1.3,2.3h-1.3c-0.5-1-0.7-2-1.4-2h-0.4v2h-1.2v-4.9H51.8z"/>
<path d="M58.9,91.8c-0.9,0-1.5,0.6-1.5,1.5s0.6,1.5,1.5,1.5c0.9,0,1.5-0.6,1.5-1.5S59.9,91.8,58.9,91.8 M58.9,95.8
	c-1.8,0-2.8-1.3-2.8-2.5c0-1.2,1-2.5,2.8-2.5c1.8,0,2.8,1.3,2.8,2.5C61.7,94.5,60.7,95.8,58.9,95.8"/>
<path d="M65.9,92.9h0.6c0.6,0,0.8-0.2,0.8-0.6c0-0.4-0.2-0.6-0.9-0.6h-0.4V92.9 M66.8,90.8c1.1,0,1.6,0.8,1.6,1.5
	c0,0.7-0.5,1.5-1.6,1.5h-1v2h-1.2v-4.9H66.8z"/>
<path d="M74.8,89.9c0,0.3-0.2,0.5-0.5,0.5c-0.3,0-0.5-0.2-0.5-0.5c0-0.3,0.2-0.5,0.5-0.5C74.6,89.4,74.8,89.6,74.8,89.9 M73.5,92
	l-0.7,1.9h1.5L73.5,92z M73.3,89.9c0,0.3-0.2,0.5-0.5,0.5c-0.3,0-0.5-0.2-0.5-0.5c0-0.3,0.2-0.5,0.5-0.5
	C73.1,89.4,73.3,89.6,73.3,89.9 M76.4,95.7H75l-0.4-1h-2.2l-0.4,1h-1.3l2-4.9h1.4L76.4,95.7z"/>
<rect x="79" y="90.8" width="1.2" height="4.9"/>
<path d="M86.6,92.1c-0.7-0.3-1.1-0.4-1.5-0.4c-0.4,0-0.7,0.2-0.7,0.4c0,0.7,2.5,0.5,2.5,2.2c0,0.9-0.8,1.5-1.9,1.5
	c-0.9,0-1.3-0.2-1.8-0.5v-1.1c0.7,0.5,1.1,0.6,1.7,0.6c0.5,0,0.7-0.2,0.7-0.5c0-0.8-2.5-0.5-2.5-2.3c0-0.8,0.7-1.4,1.9-1.4
	c0.5,0,1,0.1,1.7,0.4V92.1"/>
<path d="M94.2,95.3c-0.7,0.4-1.2,0.5-1.9,0.5c-1.9,0-2.8-1.2-2.8-2.5c0-1.3,1.1-2.5,2.9-2.5c0.7,0,1.3,0.1,1.8,0.4v1.1
	c-0.5-0.3-1.1-0.5-1.7-0.5c-1,0-1.8,0.6-1.8,1.5c0,0.9,0.7,1.5,1.7,1.5c0.6,0,1.1-0.2,1.8-0.5V95.3"/>
<polygon points="102.1,95.7 100.8,95.7 100.8,93.7 98.4,93.7 98.4,95.7 97.2,95.7 97.2,90.8 98.4,90.8 98.4,92.8 100.8,92.8 
	100.8,90.8 102.1,90.8 "/>
<polygon points="108.8,95.7 105.2,95.7 105.2,90.8 108.7,90.8 108.7,91.7 106.4,91.7 106.4,92.8 108.6,92.8 108.6,93.7 106.4,93.7 
	106.4,94.8 108.8,94.8 "/>
<polygon points="117.3,94.8 119.9,94.8 119.9,95.7 115.2,95.7 117.9,91.7 115.4,91.7 115.4,90.8 119.9,90.8 "/>
<polygon points="126.3,95.7 122.7,95.7 122.7,90.8 126.3,90.8 126.3,91.7 124,91.7 124,92.8 126.2,92.8 126.2,93.7 124,93.7 
	124,94.8 126.3,94.8 "/>
<polygon points="134.2,95.7 133.2,95.7 130.5,92.6 130.5,95.7 129.3,95.7 129.3,90.8 130.4,90.8 133,93.8 133,90.8 134.2,90.8 "/>
<polygon points="141.8,91.7 140,91.7 140,95.7 138.8,95.7 138.8,91.7 137,91.7 137,90.8 141.8,90.8 "/>
<path d="M145.7,92.8h0.6c0.3,0,0.7-0.1,0.7-0.6c0-0.4-0.2-0.6-0.7-0.6h-0.6V92.8 M146.7,90.8c1,0,1.6,0.7,1.6,1.4
	c0,0.5-0.3,0.9-0.8,1.2c0.5,0.3,0.7,0.9,1.3,2.3h-1.3c-0.5-1-0.7-2-1.4-2h-0.4v2h-1.2v-4.9H146.7z"/>
<path d="M153.5,92l-0.7,1.9h1.5L153.5,92z M156.4,95.7h-1.3l-0.4-1h-2.2l-0.4,1h-1.3l2-4.9h1.4L156.4,95.7z"/>
<polygon points="162.7,95.7 159,95.7 159,90.8 160.2,90.8 160.2,94.8 162.7,94.8 "/>
<path d="M166.6,94.8h0.7c0.7,0,0.9-0.2,0.9-0.6c0-0.4-0.3-0.6-0.7-0.6h-0.9V94.8 M166.6,92.8h0.6c0.4,0,0.6-0.3,0.6-0.5
	c0-0.3-0.2-0.5-0.6-0.5h-0.6V92.8z M167.5,90.8c1.2,0,1.6,0.7,1.6,1.2c0,0.4-0.3,0.8-0.7,1c0.7,0.2,1,0.7,1,1.3
	c0,0.6-0.3,1.4-1.7,1.4h-2.4v-4.9H167.5z"/>
<path d="M174.6,92l-0.7,1.9h1.5L174.6,92z M177.4,95.7h-1.3l-0.4-1h-2.2l-0.4,1h-1.3l2-4.9h1.4L177.4,95.7z"/>
<polygon points="184.9,95.7 183.9,95.7 181.2,92.6 181.2,95.7 180,95.7 180,90.8 181.1,90.8 183.7,93.8 183.7,90.8 184.9,90.8 "/>
<polygon points="190.6,93.1 192.7,95.7 191.2,95.7 189.3,93.4 189.3,95.7 188,95.7 188,90.8 189.3,90.8 189.3,93 189.3,93 
	190.8,90.8 192.2,90.8 "/>
</svg>
