<?xml version="1.0" encoding="utf-8"?>
<!-- Generator: Adobe Illustrator 27.8.0, SVG Export Plug-In . SVG Version: 6.00 Build 0)  -->
<svg version="1.1" id="Ebene_1" xmlns="http://www.w3.org/2000/svg" xmlns:xlink="http://www.w3.org/1999/xlink" x="0px" y="0px"
	 viewBox="0 0 225 148" style="enable-background:new 0 0 225 148;" xml:space="preserve">
<style type="text/css">
	.st0{fill:#FFFFFF;}
</style>
<g id="box">
	<rect y="0" class="st0" width="225" height="148"/>
</g>
<g id="g3732" transform="matrix(1.4699102,0,0,1.4699102,-537.50449,-181.37517)">
	<path id="path3463" d="M437.1,187.1l2.1-11.5h5.5l-0.3,1.4H441l-0.7,3.6h3.4l-0.3,1.4H440l-0.9,5.1H437.1z M443.7,187.1l1.5-8.2
		h1.9l-0.3,1.6l0.6-0.8c0.2-0.3,0.5-0.5,0.6-0.7c0.3-0.2,0.5-0.3,0.9-0.3s0.9,0.2,1.3,0.6l-1,1.5c-0.3-0.1-0.6-0.2-0.8-0.2
		c-0.4,0-0.8,0.2-1.1,0.5c-0.2,0.2-0.5,0.6-0.7,1.2c-0.2,0.4-0.3,0.9-0.4,1.4l-0.6,3.5h-1.9V187.1z M456.5,187.1h-1.9l0.3-1.4
		c-0.4,0.4-0.8,0.8-1.2,1c-0.6,0.4-1.2,0.6-1.8,0.6c-0.7,0-1.3-0.3-1.7-0.8c-0.5-0.6-0.7-1.4-0.7-2.4c0-0.9,0.2-1.8,0.6-2.6
		c0.4-1,1.1-1.7,1.9-2.3c0.6-0.4,1.3-0.6,2-0.6c0.6,0,1.1,0.2,1.6,0.6c0.1,0.1,0.3,0.3,0.4,0.5l0.2-0.9h1.9L456.5,187.1z
		 M454.2,179.9c-0.6,0-1.1,0.3-1.6,0.9c-0.4,0.5-0.7,1.1-0.9,1.9c-0.1,0.5-0.2,0.9-0.2,1.4c0,0.6,0.1,1,0.3,1.3
		c0.2,0.3,0.5,0.5,0.9,0.5c0.8,0,1.5-0.6,2.1-1.7c0.3-0.6,0.5-1.3,0.7-2c0.1-0.4,0.1-0.8,0.1-1c0-0.4-0.1-0.7-0.4-1
		C454.9,180,454.6,179.9,454.2,179.9 M457.6,191.2l2.3-12.4h1.9l-0.3,1.6c0.4-0.5,0.8-0.9,1.1-1.1c0.6-0.4,1.2-0.7,1.9-0.7
		c0.7,0,1.3,0.3,1.7,0.8c0.5,0.6,0.7,1.4,0.7,2.4c0,0.9-0.2,1.8-0.6,2.7c-0.5,1-1.1,1.7-1.9,2.2c-0.6,0.4-1.2,0.6-1.9,0.6
		c-0.8,0-1.5-0.3-2.1-0.9l-0.9,4.8L457.6,191.2L457.6,191.2z M463.7,180c-0.9,0-1.6,0.7-2.2,2.1c-0.3,0.7-0.5,1.4-0.6,2.1
		c0,0.3-0.1,0.5-0.1,0.5c-0.1,0.2-0.1,0.4-0.1,0.4v0.1c0,0,0,0,0.1,0.1c0.1,0.2,0.3,0.4,0.6,0.5c0.3,0.1,0.5,0.2,0.8,0.2
		c0.7,0,1.3-0.4,1.9-1.3c0.5-0.8,0.8-1.8,0.8-2.9C464.8,180.6,464.5,180,463.7,180 M472.5,178.6c0.8,0,1.4,0.2,2,0.6
		c0.9,0.7,1.4,1.7,1.4,3.1c0,0.8-0.2,1.6-0.5,2.3c-0.4,0.9-1,1.5-1.8,2c-0.7,0.4-1.4,0.6-2.2,0.6c-1,0-1.8-0.3-2.4-0.9
		c-0.7-0.7-1.1-1.7-1.1-2.8c0-0.9,0.2-1.7,0.7-2.5s1.1-1.4,1.9-1.9C471,178.8,471.7,178.6,472.5,178.6 M472.2,179.8
		c-0.5,0-0.9,0.2-1.3,0.7c-0.3,0.3-0.6,0.8-0.8,1.3c-0.2,0.6-0.3,1.2-0.3,1.8c0,0.7,0.1,1.3,0.3,1.7c0.3,0.5,0.7,0.7,1.2,0.7
		c0.8,0,1.5-0.5,1.9-1.6c0.3-0.7,0.4-1.5,0.4-2.4C473.7,180.6,473.2,179.8,472.2,179.8 M476.1,187.1l1.5-8.2h1.9l-0.3,1.6l0.6-0.8
		c0.2-0.3,0.5-0.5,0.6-0.7c0.3-0.2,0.5-0.3,0.9-0.3s0.8,0.2,1.3,0.6l-1,1.5c-0.3-0.1-0.6-0.2-0.8-0.2c-0.4,0-0.8,0.2-1.1,0.5
		c-0.2,0.2-0.5,0.6-0.7,1.2c-0.2,0.4-0.3,0.9-0.4,1.4l-0.6,3.5h-1.9V187.1z M483.2,179.9l0.2-1.1h1l0.4-2l2-0.5l-0.5,2.5h2l-0.2,1.1
		h-2l-0.7,4c-0.1,0.6-0.2,1.1-0.2,1.3c0,0.5,0.2,0.8,0.7,0.8c0.3,0,0.7-0.1,1.1-0.2l0.1,1.1c-0.7,0.3-1.4,0.5-2.1,0.5
		c-0.6,0-1-0.1-1.4-0.4c-0.3-0.3-0.5-0.7-0.5-1.2c0-0.2,0.1-0.8,0.2-1.6l0.8-4.1L483.2,179.9z"/>
	<path id="path3465" d="M428.8,184.6c-0.1,0-0.1,0-0.2-0.1c0,0-1.4-2.2-1.8-5.1c-0.3-1.7-0.1-3.3,0.3-4.7c0.6-1.8,1.8-3.3,3.5-4.6
		c1.6-1.2,3.7-2.1,6.2-2.7c2-0.5,4.2-0.8,6.7-0.9c4.1-0.2,7.3,0.2,7.5,0.3c0,0,0.1,0,0.1,0.1S451,167,451,167s-3.1,0.2-6.8,0.9
		c-3.4,0.6-8,1.8-10.8,3.9c-5.6,4.2-4.5,12.7-4.4,12.8C428.9,184.5,428.9,184.5,428.8,184.6 M417.7,187c0,0,0.6-1.6,1-3.6
		c0.4-1.9,0.6-4.5-0.4-6.5c-0.7-1.4-2-2.4-3.8-2.8c-1.5-0.4-3.4-0.3-5.6,0.2c-1.7,0.4-3.7,1.1-5.8,2.1c-3.5,1.6-6.2,3.4-6.3,3.5
		c0,0-0.1,0.1-0.1,0.2c0,0.1,0.1,0,0.1,0c0.1,0,10.4-4.8,15.5-3.5c5.5,1.4,5.1,10.2,5.1,10.3c0,0,0,0.1,0.1,0.1
		C417.6,187.1,417.6,187,417.7,187 M396.1,175c0-0.1,0-0.1,0.1-0.1s9.7-4.2,12.1-8.1c0.6-0.9,0.7-1.9,0.5-2.8
		c-0.5-1.9-2.7-3-2.8-3.1c0,0-0.1-0.1,0-0.1c0-0.1,0.1-0.1,0.2-0.1s1.2,0.2,2.4,0.6c1.2,0.4,2.7,1.2,3.3,2.4
		c0.4,0.9,0.3,1.9-0.3,3.1c-0.7,1.3-2,2.5-3.8,3.6c-1.4,0.9-3.1,1.8-5.1,2.6c-3.4,1.4-6.4,2.1-6.4,2.1
		C396.2,175.1,396.1,175.1,396.1,175 M422,160.6c1.8-0.5,3.5-1.2,4.9-2.2c1.2-0.8,2.2-1.7,3.1-2.8c1.4-1.7,2.1-3.5,2.3-3.8v-0.1
		h-0.1c-0.1,0.1-4.5,4.9-10.2,6.4c-5.4,1.5-9.8-0.6-10-0.7h-0.1c-0.1,0-0.1,0.1,0,0.1c0.1,0.3,0.7,1.7,2.2,2.6c0.9,0.6,2,0.9,3.2,1
		c0.4,0,0.8,0.1,1.2,0.1C419.5,161.1,420.7,160.9,422,160.6 M440.9,162.5c-0.9,0-1.7,0-2.4-0.1c-2.1-0.2-3.6-0.8-4.5-1.7
		c-0.6-0.6-0.9-1.3-0.9-2.2c0.1-1.7,1.7-3.4,3-4.6c1.4-1.3,2.8-2.2,2.8-2.2s0.1-0.1,0.2,0c0.1,0,0,0.1,0,0.1s-3,3.2-2.8,5.7
		c0,0.7,0.3,1.3,0.8,1.8c1.6,1.4,5.5,1.8,8.5,1.8c3.3,0.1,6.2-0.2,6.3-0.2c0,0,0.1,0,0.1,0.1s-0.1,0.1-0.1,0.1
		c-0.4,0.1-3.7,0.9-7.4,1.3C443.2,162.5,442,162.5,440.9,162.5"/>
</g>
</svg>
