<?xml version="1.0" encoding="utf-8"?>
<!-- Generator: Adobe Illustrator 27.8.0, SVG Export Plug-In . SVG Version: 6.00 Build 0)  -->
<svg version="1.1" id="Ebene_1" xmlns="http://www.w3.org/2000/svg" xmlns:xlink="http://www.w3.org/1999/xlink" x="0px" y="0px"
	 viewBox="0 0 225 148" style="enable-background:new 0 0 225 148;" xml:space="preserve">
<style type="text/css">
	.st0{fill:#FFFFFF;}
</style>
<g id="box">
	<rect y="0" class="st0" width="225" height="148"/>
</g>
<g id="layer1" transform="matrix(1,0,0,1.0500361,101.83143,-1.6105311)">
	<path id="path3573" d="M-63,72.4c8.5,0,12.9-3.4,12.9-8.2h4.2c0.1,4.3-1.9,7.5-5.2,9.6c4.5-1.4,7.5-5.3,7.3-9.6h4.2
		c0.4,4.8-1.9,9.4-6.3,12.1c5.2-1.1,8.9-6.9,8.4-12.1h4.3c0.9,6.6-3.4,17.5-15.9,17.5C-53.8,77.7-56.7,75.9-63,72.4"/>
	<path id="path3575" d="M13.9,66.1c-2.4,0-4.3,0.8-5.6,1.7l0.5-1.4H3.5l-4.8,13.2H4l2.9-7.9c0.4-1,1.2-1.8,2.1-1.8h1.3
		c1,0,1.2,0.8,0.9,1.7l-2.9,7.9h5.4l3.4-9.2C17.7,68.5,17.4,66.1,13.9,66.1 M-6.2,74.3c-0.6-0.3-1.6-0.4-2.5-0.4
		c-1.4,0-2.4,0.5-2.7,1.4c-0.3,0.9,0.3,1.4,1.7,1.4c0.9,0,2-0.2,2.9-0.6L-6.2,74.3z M0.5,70.5l-3.3,9h-5.4l0.3-0.9
		c-1.5,0.7-3.3,1.2-4.9,1.2c-3.6,0-4.4-1.9-3.6-4.3c1-2.7,3.6-4.5,7.2-4.5c0,0,1.7,0,3.8,0.7l0.4-1c0.3-0.8-0.1-1.5-2.7-1.5
		c-1.9,0-4.2,1-4.2,1l-0.7-2.9c0,0,3.6-1.2,7.4-1.2C0.2,66.1,1.3,68.2,0.5,70.5 M57.8,69.7c-2.1,0-3.4,1.5-4,3.2
		c-0.7,2-0.5,3.2,1.6,3.2s3.4-1.5,4-3.2C60.2,70.9,59.9,69.7,57.8,69.7 M64.5,72.9c-1.7,4.8-5,6.8-10.4,6.8c-4.7,0-6.8-3.1-5.4-6.8
		c1.6-4.4,5.4-6.8,10.4-6.8C63.8,66.1,65.9,69.2,64.5,72.9 M40.9,69.7c-2.1,0-3.4,1.5-4,3.2c-0.7,2-0.5,3.2,1.6,3.2
		c2.1,0,3.4-1.5,4-3.2C43.3,70.9,43,69.7,40.9,69.7 M47.6,72.9c-1.7,4.8-5,6.8-10.4,6.8c-4.7,0-6.8-3.1-5.4-6.8
		c1.6-4.4,5.4-6.8,10.4-6.8C46.9,66.1,49,69.2,47.6,72.9 M84.4,66.4h-6.9L72,70l1.3-3.6h-5.4l-4.8,13.2h5.4l1.5-4.2l1.5-1l2.2,5.1
		h6.3L76,71.6L84.4,66.4z M36.4,66.4h-6.8L24,70l1.3-3.6H20l-4.8,13.2h5.4l1.5-4.2l1.5-1l2.2,5.1h6.3L28,71.6L36.4,66.4z
		 M-14.3,66.4L-19,79.5h-5.4l2-5.4h-4.3l-2,5.4h-5.4l4.8-13.2h5.4l-1.7,4.7h4.3l1.7-4.7H-14.3z"/>
</g>
</svg>
