<?xml version="1.0" encoding="utf-8"?>
<!-- Generator: Adobe Illustrator 27.8.0, SVG Export Plug-In . SVG Version: 6.00 Build 0)  -->
<svg version="1.1" id="Ebene_1" xmlns="http://www.w3.org/2000/svg" xmlns:xlink="http://www.w3.org/1999/xlink" x="0px" y="0px"
	 viewBox="0 0 225 148" style="enable-background:new 0 0 225 148;" xml:space="preserve">
<style type="text/css">
	.st0{fill:#FFFFFF;}
</style>
<g id="box">
	<rect y="0" class="st0" width="225" height="148"/>
</g>
<polyline id="polyline3" points="123.1,77.5 136.9,77.5 136.9,75.8 125.5,75.8 125.5,70.4 134.1,70.4 134.1,68.7 125.5,68.7 
	125.5,63.7 136.9,63.7 136.9,62 123.1,62 123.1,77.5 "/>
<polyline id="polyline5" points="130.3,59.5 128.4,61.6 134.3,59.5 130.3,59.5 "/>
<polyline id="polyline7" points="160.1,75.8 160.1,62 157.9,62 157.9,77.5 171.9,77.5 171.9,75.8 160.1,75.8 "/>
<path id="path9" d="M145.9,62L138,77.5h2.7l2-4h9.4l2,4h2.6L148.9,62H145.9 M143.7,71.5l3.7-7.4l3.7,7.4H143.7z"/>
<path id="path11" d="M115.6,71c3.5-0.9,3.9-3.6,3.9-4.5c-0.2-2.8-2.1-4.5-5.4-4.5h-9.7v15.4h2.2V71h6.3l4.7,6.5h2.8
	C120.4,77.5,117,73.1,115.6,71 M113.8,69.2h-7.2v-5.3h7.5c1.7,0,2.7,0.8,3,1.8c0.2,0.7,0.1,1.6-0.3,2.2
	C116.2,69,115,69.2,113.8,69.2z"/>
<path id="path13" d="M91,59.4c-6.3,0-10.5,4.4-10.5,9.8c0,5.6,4.7,9.6,10.5,9.6c5.8,0,10.5-3.9,10.5-9.6
	C101.6,63.8,97.2,59.4,91,59.4 M91,76.9c-4.3,0-7.9-3.5-7.9-7.7c0-4.2,3.4-7.8,8.1-7.8c4.6,0,7.9,3.6,7.9,7.8
	C99,73.4,95.3,76.9,91,76.9z"/>
<polyline id="polyline15" points="74.9,67.5 76.5,67.5 79.4,62 77.1,62 74.9,67.5 "/>
<polyline id="polyline17" points="67.1,75.8 67.1,62 64.9,62 64.9,77.5 78.9,77.5 78.9,75.8 67.1,75.8 "/>
</svg>
