<?xml version="1.0" encoding="utf-8"?>
<!-- Generator: Adobe Illustrator 27.8.0, SVG Export Plug-In . SVG Version: 6.00 Build 0)  -->
<svg version="1.1" id="Ebene_1" xmlns="http://www.w3.org/2000/svg" xmlns:xlink="http://www.w3.org/1999/xlink" x="0px" y="0px"
	 viewBox="0 0 225 148" style="enable-background:new 0 0 225 148;" xml:space="preserve">
<style type="text/css">
	.st0{fill:#FFFFFF;}
</style>
<g id="box">
	<rect y="0" class="st0" width="225" height="148"/>
</g>
<polygon id="polygon2" points="102.5,77.4 89.3,77.4 89.3,54.2 96.2,54.2 96.2,71 103.8,71 "/>
<polygon id="polygon4" points="138.4,77.4 131.6,77.4 131.6,60.6 126.8,60.6 128,54.2 143.4,54.2 142.2,60.6 138.4,60.6 "/>
<polygon id="polygon6" points="154.9,77.4 148.1,77.4 148.1,60.6 143.2,60.6 144.5,54.2 159.9,54.2 158.6,60.6 154.9,60.6 "/>
<path id="path8" d="M158.2,66c0-6.6,5.3-11.9,11.9-11.9S182,59.4,182,66c0,6.6-5.3,11.9-11.9,11.9S158.2,72.6,158.2,66 M164.8,66
	c0,2.8,2.3,5.2,5.2,5.2s5.2-2.3,5.2-5.2s-2.3-5.2-5.2-5.2C167.2,60.8,164.8,63.2,164.8,66 M103.4,66c0-6.6,5.3-11.9,11.9-11.9
	c6.6,0,11.9,5.3,11.9,11.9c0,6.6-5.3,11.9-11.9,11.9S103.4,72.6,103.4,66 M110.1,66c0,2.8,2.3,5.2,5.2,5.2s5.2-2.3,5.2-5.2
	s-2.3-5.2-5.2-5.2C112.4,60.8,110.1,63.2,110.1,66 M69.7,66.6c1.9-3.7,4.6-7.2,7.8-9c2.1-1.2,4.3-0.6,5,2.3c0.4,2.2,0.4,3.9-1.1,4.9
	C78.9,66.3,74.4,66.9,69.7,66.6 M68.3,66.4c-5.3-0.6-10.5-2.2-12.8-4.5c-1-1-0.7-2.5-0.1-3.5c2.3-3.7,8.4-6.8,13.5-7.4
	c1.6-0.2,2.7,0.2,2.7,2C71.9,56.7,70.8,61.7,68.3,66.4 M67.7,67.5c-3.1,5.2-7.8,9.7-14.6,11c-3.8,0.8-4.9-1.9-4.9-4.7
	c0-3.3,0.7-6,5.8-6.7C57.2,66.7,62.6,66.9,67.7,67.5 M69.2,67.8c4,0.6,7.6,1.7,8.9,3.1c1,1,0.9,1.9,0.2,2.9c-1.9,2.7-6.7,4.7-9.4,5
	c-1.4,0.2-1.8-0.6-1.9-1.6C66.8,74.6,67.6,71.1,69.2,67.8 M66.3,72.3c-2.3,5.4-5.6,12-8.2,12.9l-1.5-1.6c3.6-0.2,7.5-8,8.6-10.5
	L66.3,72.3 M96.9,96.4V84.8h-1.6v4.7h-4.4v-4.7h-1.6v11.6h1.6v-5.5h4.4v5.5H96.9 M106,92.5v-0.2c0-1.9-0.3-2.9-1-3.6
	c-0.6-0.6-1.4-0.9-2.3-0.9c-1,0-1.9,0.4-2.5,1.1c-0.7,0.9-1,1.8-1,3.2c0,2.7,1.4,4.4,3.8,4.4c1.1,0,2.1-0.3,2.9-1l-0.6-0.9
	c-0.6,0.6-1.3,0.8-2.1,0.8c-0.8,0-1.5-0.3-1.9-1c-0.2-0.4-0.3-1-0.3-1.7v-0.2L106,92.5L106,92.5z M104.4,91.4h-3.5
	c0-1.5,0.6-2.5,1.8-2.5c0.6,0,1,0.2,1.2,0.6C104.2,89.9,104.4,90.6,104.4,91.4 M113.9,93.8c0-1.1-0.6-2-2.2-2.3l-1.1-0.2
	c-0.9-0.2-1.2-0.6-1.2-1.1c0-0.7,0.6-1.3,1.4-1.3c0.6,0,1.3,0.2,2.1,0.6l0.5-1.1c-0.7-0.4-1.6-0.7-2.7-0.7c-1.9,0-3.1,1-3.1,2.7
	c0,1.2,0.7,2.1,2,2.3l1,0.2c1,0.2,1.4,0.6,1.4,1.3c0,0.8-0.6,1.4-1.5,1.4c-1,0-1.9-0.4-2.7-0.8l-0.6,1.1c1,0.6,2.1,0.9,3.1,0.9
	C112.6,96.7,113.9,95.5,113.9,93.8 M121.6,93.8c0-1.1-0.6-2-2.2-2.3l-1.1-0.2c-0.9-0.2-1.2-0.6-1.2-1.1c0-0.7,0.6-1.3,1.4-1.3
	c0.6,0,1.3,0.2,2.1,0.6l0.5-1.1c-0.7-0.4-1.6-0.7-2.7-0.7c-1.9,0-3.1,1-3.1,2.7c0,1.2,0.7,2.1,2,2.3l1,0.2c1,0.2,1.4,0.6,1.4,1.3
	c0,0.8-0.6,1.4-1.5,1.4c-1,0-1.9-0.4-2.7-0.8l-0.6,1.1c1,0.6,2.1,0.9,3.1,0.9C120.3,96.7,121.6,95.5,121.6,93.8 M129.9,92.5v-0.2
	c0-1.9-0.3-2.9-1-3.6c-0.6-0.6-1.4-0.9-2.3-0.9c-1,0-1.9,0.4-2.5,1.1c-0.7,0.9-1,1.8-1,3.2c0,2.7,1.4,4.4,3.8,4.4
	c1.1,0,2.1-0.3,2.9-1l-0.6-0.9c-0.6,0.6-1.3,0.8-2.1,0.8c-0.8,0-1.5-0.3-1.9-1c-0.2-0.4-0.3-1-0.3-1.7v-0.2L129.9,92.5L129.9,92.5z
	 M128.3,91.4h-3.5c0-1.5,0.6-2.5,1.8-2.5c0.6,0,1,0.2,1.2,0.6C128.1,89.9,128.3,90.6,128.3,91.4 M138.4,96.4v-6.4
	c0-0.4-0.1-0.7-0.2-1c-0.3-0.7-1.1-1.2-2-1.2c-0.5,0-1,0.2-1.5,0.4c-0.3,0.2-0.6,0.4-1.1,0.8c0-0.5-0.1-0.9-0.3-1.3l-1.4,0.4
	c0.2,0.6,0.3,1,0.3,2v6.3h1.5v-6.2c0.6-0.6,1.4-1,2.1-1c0.4,0,0.7,0.1,0.9,0.3c0.2,0.2,0.2,0.6,0.2,1.3v5.6H138.4L138.4,96.4z"/>
</svg>
