<?xml version="1.0" encoding="utf-8"?>
<!-- Generator: Adobe Illustrator 27.8.0, SVG Export Plug-In . SVG Version: 6.00 Build 0)  -->
<svg version="1.1" id="Ebene_1" xmlns="http://www.w3.org/2000/svg" xmlns:xlink="http://www.w3.org/1999/xlink" x="0px" y="0px"
	 viewBox="0 0 225 148" style="enable-background:new 0 0 225 148;" xml:space="preserve">
<style type="text/css">
	.st0{fill:#FFFFFF;}
</style>
<g id="box">
	<rect y="0" class="st0" width="225" height="148"/>
</g>
<g id="layer1">
	<g id="g2796" transform="matrix(1.0104167,0,0,1.0104167,246.59336,-196.59213)">
		<path id="path37" d="M-199.8,264.3c0,5.4-4.4,9.8-9.8,9.8c-5.4,0-9.8-4.4-9.8-9.8c0-5.5,4.4-9.8,10-9.8
			C-204.1,254.5-199.8,259-199.8,264.3 M-218.4,264.3c0,4.9,4,8.8,8.8,8.8c4.9,0,8.9-3.9,8.9-8.8c0-5-3.9-8.9-8.9-8.9
			C-214.4,255.5-218.4,259.5-218.4,264.3 M-211.7,263.9l-0.1,0.2c-0.4-0.1-1.3-0.4-2.1-0.8l-0.1,0.2l0.4,0.2
			c1.3,0.6,1.7,0.8,2.4,0.8c1.5,0,2.5-0.8,3.1-2.3c0.9-0.2,2.1-0.3,3.4-0.3c1.2,0,2.2,0.1,3.5,0.2l-0.3,0.4
			c-0.6-0.1-1.7-0.2-2.5-0.2c-1,0-1.6,0-1.9,0l-0.2,0.4c0.8,0,1.1,0,1.7,0c1.1,0,1.9,0,2.6,0.1l-0.3,0.4c-1.2,0-1.8-0.1-2.7-0.1
			c-0.5,0-0.9,0-1.5,0l-0.2,0.4c0.5,0,1.3-0.1,2-0.1c0.7,0,1.6,0,2.1,0l-0.3,0.4c-0.4,0-1,0-1.6,0c-0.8,0-1.9,0-2.5,0.1l-0.2,0.3
			c1-0.1,1.6-0.1,2.7-0.1c0.4,0,0.7,0,1.2,0l-0.4,0.5c-0.7,0-0.9,0-1.1,0c-1.9,0-3.1,0.3-4.3,1c1.1,1.1,3,1.9,4.6,1.9
			c0.1,0,0.2,0,0.6,0l-0.8,0.8c-4.4-1.2-5.2-1.5-9.3-3.9c-1.6-0.9-2.9-1.5-4-1.9l0.1-0.5c0.3,0,0.8,0.2,1.3,0.4l0.2-0.5
			L-211.7,263.9z"/>
		<path id="path41" d="M-183.4,257.8v10.5h5.5v2.6h-8.8v-13.1H-183.4z M-171,270.9l-0.1-0.9c-0.8,0.8-1.6,1.2-2.7,1.2
			c-1.3,0-2.4-0.5-3-1.5c-0.4-0.7-0.5-1.1-0.5-2.6v-5.6h3.1v5.5c0,1.4,0.4,1.9,1.4,1.9c1,0,1.5-0.7,1.5-1.9v-5.5h3.1v9.4H-171z
			 M-161.3,259.9h-0.5c-1.1,0-1.4,0.3-1.4,1.3v0.3h1.8v2.1h-1.8v7.3h-3.1v-7.3h-1.3v-2.1h1.3v-0.3c0-2.5,0.9-3.4,3.3-3.4h1.7V259.9z
			 M-156.5,258.5v2.9h1.7v2.1h-1.7v3.7c0,1.4,0.1,1.5,1.3,1.5h0.6v2.2h-2.3c-1.8,0-2.6-0.8-2.6-2.8v-4.6h-1.3v-2.1h1.3v-2.9H-156.5z
			 M-150.9,257.8v4.7c0.6-0.9,1.4-1.3,2.6-1.3c1.3,0,2.3,0.5,2.9,1.5c0.4,0.7,0.5,1.1,0.5,2.7v5.4h-3.1v-5.3c0-1.4-0.4-2-1.4-2
			c-1,0-1.5,0.7-1.5,2v5.3h-3.1v-13.1H-150.9z M-143.6,264.5c0-2.1,1.7-3.4,4.5-3.4c2.9,0,4.4,1.2,4.4,3.7v4.8c0,0.8,0,0.8,0.3,1.3
			h-2.8l-0.2-0.8c-1,0.9-1.8,1.2-3.1,1.2c-2.1,0-3.6-1.2-3.6-2.9c0-1.4,0.9-2.4,2.7-2.9c0.3-0.1,1.2-0.3,2.7-0.5
			c0.7-0.1,0.9-0.4,0.9-0.8c0-0.5-0.5-0.9-1.4-0.9c-1,0-1.6,0.5-1.6,1.3H-143.6z M-137.8,266.4c-0.4,0.1-0.5,0.2-0.8,0.3
			c-0.4,0.1-0.7,0.2-1.1,0.3c-1,0.3-1.5,0.6-1.5,1.3c0,0.6,0.5,1,1.2,1c1.5,0,2.2-0.7,2.2-2.1V266.4z M-130.9,261.5l0.1,1.1
			c0.7-0.9,1.6-1.3,2.7-1.3c1.3,0,2.4,0.6,2.9,1.5c0.4,0.7,0.5,1.1,0.5,2.7v5.4h-3.1v-5.3c0-1.4-0.4-2-1.4-2c-1,0-1.5,0.7-1.5,2v5.3
			h-3.1v-9.4H-130.9z M-117.9,264.4c-0.1-0.9-0.5-1.2-1.4-1.2c-0.8,0-1.2,0.3-1.2,0.8c0,0.5,0.5,0.7,1.5,0.9l1.1,0.2
			c2.2,0.4,3.3,1.3,3.3,2.9c0,2-1.7,3.3-4.4,3.3c-3.2,0-4.9-1.3-4.9-3.5h3v0.1c0,0.8,0.6,1.3,1.7,1.3c0.9,0,1.5-0.3,1.5-0.9
			c0-0.5-0.5-0.9-1.7-1.1l-1-0.2c-2.2-0.4-3.2-1.2-3.2-2.7c0-2,1.7-3.3,4.5-3.3c2,0,3.2,0.5,3.8,1.7c0.3,0.5,0.3,0.6,0.4,1.7H-117.9
			z M-113.7,264.5c0-2.1,1.7-3.4,4.5-3.4c2.9,0,4.4,1.2,4.4,3.7v4.8c0,0.8,0,0.8,0.3,1.3h-2.9l-0.2-0.8c-1.1,0.9-1.8,1.2-3.1,1.2
			c-2.1,0-3.6-1.2-3.6-2.9c0-1.4,0.9-2.4,2.7-2.9c0.3-0.1,1.2-0.3,2.7-0.5c0.6-0.1,0.9-0.4,0.9-0.8c0-0.5-0.5-0.9-1.4-0.9
			c-1,0-1.6,0.5-1.6,1.3H-113.7z M-107.8,266.4c-0.4,0.1-0.5,0.2-0.8,0.3c-0.3,0.1-0.7,0.1-1.1,0.3c-1,0.3-1.5,0.6-1.5,1.3
			c0,0.6,0.5,1,1.3,1c1.5,0,2.2-0.7,2.2-2.1V266.4z"/>
		<path id="path45" d="M-87.1,266.3c0,1.1-0.3,2-1,2.9c-1.1,1.4-2.7,2.1-4.9,2.1c-2,0-3.5-0.5-4.6-1.6c-1.4-1.3-2.1-3.1-2.1-5.2
			c0-2.1,0.8-4.1,2.1-5.4c1.1-1.1,2.7-1.6,4.7-1.6c2.1,0,3.7,0.7,4.8,2.2c0.6,0.8,0.9,1.7,1,2.8h-3.3c-0.2-1.5-1.3-2.4-2.7-2.4
			c-2,0-3.2,1.6-3.2,4.3c0,2.7,1.2,4.4,3.3,4.4c1.5,0,2.4-0.8,2.6-2.2H-87.1z"/>
		<path id="path49" d="M-86,264.5c0-2.1,1.7-3.4,4.5-3.4c1.9,0,3.3,0.6,3.9,1.7c0.3,0.6,0.4,1,0.4,2v4.8v0.4c0,0.4,0,0.5,0.3,0.9
			h-2.8l-0.2-0.8c-1.1,0.9-1.8,1.2-3.1,1.2c-2.1,0-3.6-1.2-3.6-2.9c0-1.4,0.9-2.4,2.7-2.9c0.2-0.1,1.1-0.3,2.7-0.5
			c0.6-0.1,0.9-0.4,0.9-0.8c0-0.5-0.6-0.9-1.4-0.9c-1,0-1.6,0.5-1.6,1.3H-86z M-80.1,266.4c-0.4,0.1-0.5,0.2-0.8,0.3
			c-0.1,0-0.1,0-1.1,0.3c-1,0.2-1.5,0.6-1.5,1.3c0,0.6,0.5,1,1.3,1c0.8,0,1.6-0.4,1.9-0.9c0.2-0.3,0.2-0.6,0.2-1.2V266.4z"/>
		<path id="path53" d="M-73.3,261.5l0.1,1c0.6-0.8,1.5-1.3,2.5-1.3c0.1,0,0.4,0,0.6,0.1v2.6c-0.2,0-0.3-0.1-0.5-0.1
			c-0.9,0-1.6,0.4-2,1c-0.3,0.5-0.4,0.9-0.4,2v4.1h-3.1v-9.4H-73.3z"/>
		<path id="path57" d="M-60.2,261.5v8.6c0,1.5-0.1,1.9-0.8,2.7c-1,1-2.3,1.5-4.3,1.5c-1.5,0-2.5-0.4-3.4-1.1
			c-0.6-0.5-0.9-1.1-0.9-1.9h3.1c0.2,0.7,0.6,0.9,1.5,0.9c1.2,0,1.8-0.6,1.8-1.8v-0.7c-0.8,0.6-1.5,0.8-2.5,0.8
			c-2.7,0-4.5-1.8-4.5-4.6c0-2.7,1.8-4.7,4.4-4.7c1.1,0,1.9,0.3,2.6,1.1l0.1-0.8H-60.2z M-67.1,265.8c0,1.4,0.8,2.4,2,2.4
			c1.2,0,1.9-0.8,1.9-2.4c0-1.5-0.7-2.4-1.9-2.4C-66.3,263.4-67.1,264.4-67.1,265.8"/>
		<path id="path61" d="M-49,266.2c0,3.2-1.9,5.1-5.2,5.1c-3.3,0-5.2-1.9-5.2-5.1c0-3.3,1.9-5.1,5.3-5.1C-50.9,261.1-49,263-49,266.2
			 M-56.3,266.1c0,1.8,0.7,2.8,2.1,2.8c1.4,0,2.1-1,2.1-2.7c0-1.8-0.7-2.8-2.2-2.8C-55.6,263.4-56.3,264.4-56.3,266.1"/>
		<path id="path65" d="M-182.2,275.5v1h-1.6v4.4h-1.2v-4.4h-1.7v-1H-182.2z"/>
		<path id="path69" d="M-180.6,275.5v1.8l0.1-0.1c0.1-0.1,0.4-0.3,0.9-0.3c0.6,0,1,0.4,1.1,0.6c0.3,0.4,0.2,0.8,0.2,1.2v2.3h-1.1
			v-2.1c0-0.4,0-0.6-0.1-0.8c-0.2-0.2-0.4-0.2-0.5-0.2c-0.3,0-0.5,0.2-0.6,0.3c-0.1,0.2-0.1,0.4-0.1,0.5v2.3h-1.1v-5.4H-180.6z"/>
		<path id="path73" d="M-176.3,278.5c0,0,0-0.1,0.1-0.2c0.1-0.3,0.4-0.6,0.8-0.6c0.4,0,0.7,0.2,0.7,0.6c0,0.1,0,0.1,0,0.2
			L-176.3,278.5z M-173.5,279.3c0,0,0-0.1,0-0.1c0-0.3,0-0.5-0.1-0.6c-0.2-0.9-0.7-1.3-1.1-1.5c-0.3-0.1-0.7-0.2-0.8-0.2
			c-0.9,0-1.3,0.4-1.6,0.7c-0.4,0.5-0.5,1.2-0.5,1.4c0,0.9,0.4,1.6,1.3,1.9c0.1,0,0.4,0.1,0.7,0.1c0.4,0,1.5-0.1,1.9-1.3h-1.2
			c-0.1,0.1-0.3,0.4-0.7,0.4c-0.1,0-0.5,0-0.7-0.4c-0.1-0.2-0.1-0.3-0.2-0.5L-173.5,279.3z"/>
		<path id="path77" d="M-168.4,277.8c0.2,0,0.4,0.1,0.5,0.2c0.4,0.3,0.4,0.9,0.4,1c0,0.4-0.1,0.8-0.4,1.1c-0.2,0.1-0.4,0.1-0.4,0.1
			c-0.1,0-0.3,0-0.5-0.1c-0.4-0.3-0.4-0.9-0.4-1c0-0.6,0.2-0.9,0.4-1.1C-168.7,277.8-168.5,277.8-168.4,277.8 M-170.4,275.5v5.4h1.1
			c0-0.2,0-0.4,0-0.5c0,0.1,0.1,0.2,0.2,0.3c0.1,0.1,0.4,0.3,0.8,0.3c0.3,0,0.9-0.1,1.4-0.8c0.3-0.5,0.3-1.1,0.3-1.3
			c0-1.1-0.5-1.6-0.9-1.8c-0.1-0.1-0.4-0.2-0.8-0.2c-0.6,0-0.9,0.3-1.1,0.4l0-1.8H-170.4z"/>
		<path id="path81" d="M-164.5,277v2.1c0,0.3,0,0.5,0,0.6c0.1,0.3,0.3,0.4,0.6,0.4c0.1,0,0.3,0,0.4-0.1c0.2-0.2,0.2-0.5,0.2-1v-2
			h1.1v3.9h-1.1c0-0.1,0-0.2,0-0.5c0,0.1-0.1,0.2-0.2,0.3c-0.1,0.1-0.4,0.3-0.8,0.3c-0.3,0-0.6-0.1-0.9-0.3
			c-0.6-0.4-0.5-1.1-0.5-1.7v-2H-164.5z"/>
		<path id="path85" d="M-158.9,278.2c0-0.1,0-0.1-0.1-0.2c-0.1-0.1-0.3-0.3-0.6-0.3c-0.1,0-0.2,0-0.2,0c-0.2,0.1-0.3,0.2-0.3,0.3
			c0,0.1,0.1,0.2,0.2,0.2c0.1,0,0.3,0.1,0.4,0.1l0.4,0.1l0.4,0.1c0.4,0.1,0.7,0.2,0.9,0.6c0,0.1,0.1,0.3,0.1,0.5
			c0,0.1,0,0.4-0.2,0.8c-0.2,0.3-0.7,0.6-1.5,0.6c-0.9,0-1.3-0.3-1.5-0.6c-0.1-0.2-0.3-0.4-0.3-0.8h1.1c0,0,0,0.2,0.1,0.3
			c0.1,0.1,0.3,0.3,0.7,0.3c0,0,0.1,0,0.2,0c0,0,0.4-0.1,0.4-0.4c0-0.3-0.3-0.3-0.7-0.4c-0.7-0.2-1.1-0.2-1.4-0.5
			c-0.3-0.3-0.3-0.6-0.3-0.7c0-0.3,0.1-0.6,0.2-0.7c0.2-0.3,0.6-0.6,1.5-0.6c0.2,0,1,0,1.5,0.6c0.2,0.3,0.3,0.6,0.3,0.7H-158.9z"/>
		<path id="path87" d="M-155.8,276.4h-1.1v-0.9h1.1V276.4z M-155.8,280.9h-1.1V277h1.1V280.9z"/>
		<path id="path91" d="M-153.7,277l0,0.4c0.2-0.2,0.4-0.5,1.1-0.5c0.2,0,0.8,0,1.1,0.5c0.3,0.4,0.2,0.8,0.2,1.3v2.3h-1.1v-2
			c0-0.5,0-0.7-0.2-0.9c-0.1-0.1-0.2-0.2-0.4-0.2c-0.1,0-0.2,0-0.4,0.1c-0.3,0.2-0.3,0.6-0.3,0.9v2h-1.1V277H-153.7z"/>
		<path id="path95" d="M-149.3,278.5c0,0,0-0.1,0.1-0.2c0.1-0.3,0.4-0.6,0.8-0.6c0.4,0,0.7,0.2,0.7,0.6c0,0.1,0,0.1,0,0.2
			L-149.3,278.5z M-146.5,279.3c0,0,0-0.1,0-0.1c0-0.3,0-0.5-0.1-0.6c-0.2-0.9-0.7-1.3-1.1-1.5c-0.3-0.1-0.7-0.2-0.8-0.2
			c-0.9,0-1.3,0.4-1.6,0.7c-0.4,0.5-0.5,1.2-0.5,1.4c0,0.9,0.4,1.6,1.3,1.9c0.1,0,0.4,0.1,0.7,0.1c0.4,0,1.5-0.1,1.9-1.3h-1.2
			c-0.1,0.1-0.3,0.4-0.7,0.4c-0.1,0-0.5,0-0.7-0.4c-0.1-0.2-0.1-0.3-0.2-0.5L-146.5,279.3z"/>
		<path id="path99" d="M-143.6,278.2c0-0.1,0-0.1-0.1-0.2c-0.1-0.1-0.3-0.3-0.6-0.3c-0.1,0-0.2,0-0.2,0c-0.2,0.1-0.3,0.2-0.3,0.3
			c0,0.1,0.1,0.2,0.2,0.2c0.1,0,0.3,0.1,0.4,0.1l0.4,0.1l0.4,0.1c0.4,0.1,0.7,0.2,0.9,0.6c0,0.1,0.1,0.3,0.1,0.5
			c0,0.1,0,0.4-0.2,0.8c-0.2,0.3-0.7,0.6-1.5,0.6c-0.9,0-1.3-0.3-1.5-0.6c-0.1-0.2-0.3-0.4-0.3-0.8h1.1c0,0,0,0.2,0.1,0.3
			c0.1,0.1,0.3,0.3,0.7,0.3c0,0,0.1,0,0.2,0c0,0,0.4-0.1,0.4-0.4c0-0.3-0.3-0.3-0.7-0.4c-0.7-0.2-1.1-0.2-1.4-0.5
			c-0.3-0.3-0.3-0.6-0.3-0.7c0-0.3,0.1-0.6,0.2-0.7c0.2-0.3,0.6-0.6,1.5-0.6c0.2,0,1,0,1.5,0.6c0.2,0.3,0.3,0.6,0.3,0.7H-143.6z"/>
		<path id="path103" d="M-139.5,278.2c0-0.1,0-0.1-0.1-0.2c-0.1-0.1-0.3-0.3-0.6-0.3c-0.1,0-0.2,0-0.2,0c-0.2,0.1-0.3,0.2-0.3,0.3
			c0,0.1,0.1,0.2,0.2,0.2c0.1,0,0.3,0.1,0.4,0.1l0.4,0.1l0.4,0.1c0.4,0.1,0.7,0.2,0.9,0.6c0,0.1,0.1,0.3,0.1,0.5
			c0,0.1,0,0.4-0.2,0.8c-0.2,0.3-0.7,0.6-1.5,0.6c-0.9,0-1.3-0.3-1.5-0.6c-0.1-0.2-0.3-0.4-0.3-0.8h1.1c0,0,0,0.2,0.1,0.3
			c0.1,0.1,0.3,0.3,0.7,0.3c0,0,0.1,0,0.2,0c0,0,0.4-0.1,0.4-0.4c0-0.3-0.3-0.3-0.7-0.4c-0.7-0.2-1.1-0.2-1.4-0.5
			c-0.3-0.3-0.3-0.6-0.3-0.7c0-0.3,0.1-0.6,0.2-0.7c0.2-0.3,0.6-0.6,1.5-0.6c0.2,0,1,0,1.5,0.6c0.2,0.3,0.3,0.6,0.3,0.7H-139.5z"/>
		<path id="path107" d="M-133.9,275.8v1.2h0.7v0.9h-0.7v1.4c0,0.2,0,0.3,0,0.5c0,0.1,0,0.2,0.1,0.3c0.1,0.1,0.2,0.1,0.5,0.1h0.2v0.9
			h-0.6c-0.1,0-0.2,0-0.3,0c-0.1,0-0.6,0-0.8-0.4c-0.1-0.2-0.1-0.4-0.1-0.9v-1.8h-0.5V277h0.5v-1.2H-133.9z"/>
		<path id="path111" d="M-130.7,277.8c0.6,0,0.8,0.4,0.9,0.6c0.1,0.2,0.1,0.5,0.1,0.5c0,0.6-0.2,1-0.5,1.1c-0.2,0.1-0.4,0.1-0.4,0.1
			c-0.4,0-0.9-0.3-0.9-1.2C-131.6,278-131.1,277.8-130.7,277.8 M-130.6,276.9c-0.8,0-1.3,0.4-1.6,0.6c-0.2,0.2-0.5,0.7-0.5,1.5
			c0,0.8,0.4,1.6,1.2,2c0.4,0.1,0.7,0.1,0.8,0.1c0.4,0,0.6-0.1,0.8-0.1c0.9-0.3,1.3-1.1,1.3-2c0-0.6-0.2-1.2-0.7-1.6
			C-129.8,276.9-130.4,276.9-130.6,276.9"/>
		<path id="path115" d="M-123.4,277.8c0.2,0,0.4,0.1,0.5,0.2c0.4,0.3,0.4,0.9,0.4,1c0,0.4-0.1,0.8-0.4,1.1c-0.2,0.1-0.4,0.1-0.4,0.1
			c-0.1,0-0.3,0-0.5-0.1c-0.4-0.3-0.4-0.9-0.4-1c0-0.6,0.2-0.9,0.4-1.1C-123.7,277.8-123.5,277.8-123.4,277.8 M-125.4,275.5v5.4h1.1
			c0-0.2,0-0.4,0-0.5c0,0.1,0.1,0.2,0.2,0.3c0.1,0.1,0.4,0.3,0.8,0.3c0.3,0,0.9-0.1,1.4-0.8c0.3-0.5,0.3-1.1,0.3-1.3
			c0-1.1-0.5-1.6-0.9-1.8c-0.1-0.1-0.4-0.2-0.8-0.2c-0.6,0-0.9,0.3-1.1,0.4l0-1.8H-125.4z"/>
		<path id="path119" d="M-119.5,277v2.1c0,0.3,0,0.5,0,0.6c0.1,0.3,0.3,0.4,0.6,0.4c0.1,0,0.3,0,0.4-0.1c0.2-0.2,0.2-0.5,0.2-1v-2
			h1.1v3.9h-1.1c0-0.1,0-0.2,0-0.5c0,0.1-0.1,0.2-0.2,0.3c-0.1,0.1-0.4,0.3-0.8,0.3c-0.3,0-0.6-0.1-0.9-0.3
			c-0.6-0.4-0.5-1.1-0.5-1.7v-2H-119.5z"/>
		<path id="path123" d="M-113.9,278.2c0-0.1,0-0.1-0.1-0.2c-0.1-0.1-0.3-0.3-0.6-0.3c-0.1,0-0.2,0-0.2,0c-0.2,0.1-0.3,0.2-0.3,0.3
			c0,0.1,0.1,0.2,0.2,0.2c0.1,0,0.3,0.1,0.4,0.1l0.4,0.1l0.4,0.1c0.4,0.1,0.7,0.2,0.9,0.6c0,0.1,0.1,0.3,0.1,0.5
			c0,0.1,0,0.4-0.2,0.8c-0.2,0.3-0.7,0.6-1.5,0.6c-0.9,0-1.3-0.3-1.5-0.6c-0.1-0.2-0.3-0.4-0.3-0.8h1.1c0,0,0,0.2,0.1,0.3
			c0.1,0.1,0.3,0.3,0.7,0.3c0,0,0.1,0,0.2,0c0,0,0.4-0.1,0.4-0.4c0-0.3-0.3-0.3-0.7-0.4c-0.7-0.2-1.1-0.2-1.4-0.5
			c-0.3-0.3-0.3-0.6-0.3-0.7c0-0.3,0.1-0.6,0.2-0.7c0.2-0.3,0.6-0.6,1.5-0.6c0.2,0,1,0,1.5,0.6c0.2,0.3,0.3,0.6,0.3,0.7H-113.9z"/>
		<path id="path125" d="M-110.8,276.4h-1.1v-0.9h1.1V276.4z M-110.8,280.9h-1.1V277h1.1V280.9z"/>
		<path id="path129" d="M-108.7,277l0,0.4c0.2-0.2,0.4-0.5,1.1-0.5c0.2,0,0.8,0,1.1,0.5c0.3,0.4,0.2,0.8,0.2,1.3v2.3h-1.1v-2
			c0-0.5,0-0.7-0.2-0.9c-0.1-0.1-0.2-0.2-0.4-0.2c-0.1,0-0.2,0-0.4,0.1c-0.3,0.2-0.3,0.6-0.3,0.9v2h-1.1V277H-108.7z"/>
		<path id="path133" d="M-104.3,278.5c0,0,0-0.1,0.1-0.2c0.1-0.3,0.4-0.6,0.8-0.6c0.4,0,0.7,0.2,0.7,0.6c0,0.1,0,0.1,0,0.2
			L-104.3,278.5z M-101.5,279.3c0,0,0-0.1,0-0.1c0-0.3,0-0.5-0.1-0.6c-0.2-0.9-0.7-1.3-1.1-1.5c-0.4-0.1-0.7-0.2-0.8-0.2
			c-0.9,0-1.3,0.4-1.6,0.7c-0.4,0.5-0.5,1.2-0.5,1.4c0,0.9,0.4,1.6,1.3,1.9c0.1,0,0.4,0.1,0.7,0.1c0.4,0,1.5-0.1,1.9-1.3h-1.2
			c-0.1,0.1-0.3,0.4-0.7,0.4c-0.1,0-0.5,0-0.7-0.4c-0.1-0.2-0.1-0.3-0.2-0.5L-101.5,279.3z"/>
		<path id="path137" d="M-98.6,278.2c0-0.1,0-0.1-0.1-0.2c-0.1-0.1-0.3-0.3-0.6-0.3c-0.1,0-0.2,0-0.2,0c-0.2,0.1-0.3,0.2-0.3,0.3
			c0,0.1,0.1,0.2,0.2,0.2c0.1,0,0.3,0.1,0.4,0.1l0.4,0.1l0.4,0.1c0.4,0.1,0.7,0.2,0.9,0.6c0,0.1,0.1,0.3,0.1,0.5
			c0,0.1,0,0.4-0.2,0.8c-0.2,0.3-0.7,0.6-1.5,0.6c-0.9,0-1.3-0.3-1.5-0.6c-0.1-0.2-0.3-0.4-0.3-0.8h1.1c0,0,0,0.2,0.1,0.3
			c0.1,0.1,0.3,0.3,0.7,0.3c0,0,0.1,0,0.2,0c0,0,0.4-0.1,0.4-0.4c0-0.3-0.3-0.3-0.7-0.4c-0.7-0.2-1.1-0.2-1.4-0.5
			c-0.3-0.3-0.3-0.6-0.3-0.7c0-0.3,0.1-0.6,0.2-0.7c0.2-0.3,0.6-0.6,1.5-0.6c0.2,0,1,0,1.5,0.6c0.2,0.3,0.3,0.6,0.3,0.7H-98.6z"/>
		<path id="path141" d="M-94.5,278.2c0-0.1,0-0.1-0.1-0.2c-0.1-0.1-0.3-0.3-0.6-0.3c-0.1,0-0.2,0-0.2,0c-0.2,0.1-0.3,0.2-0.3,0.3
			c0,0.1,0.1,0.2,0.2,0.2c0.1,0,0.3,0.1,0.4,0.1l0.4,0.1l0.4,0.1c0.4,0.1,0.7,0.2,0.9,0.6c0,0.1,0.1,0.3,0.1,0.5
			c0,0.1,0,0.4-0.2,0.8c-0.2,0.3-0.7,0.6-1.5,0.6c-0.9,0-1.3-0.3-1.5-0.6c-0.1-0.2-0.3-0.4-0.3-0.8h1.1c0,0,0,0.2,0.1,0.3
			c0.1,0.1,0.3,0.3,0.7,0.3c0,0,0.1,0,0.2,0c0,0,0.4-0.1,0.4-0.4c0-0.3-0.3-0.3-0.7-0.4c-0.7-0.2-1.1-0.2-1.4-0.5
			c-0.3-0.3-0.3-0.6-0.3-0.7c0-0.3,0.1-0.6,0.2-0.7c0.2-0.3,0.6-0.6,1.5-0.6c0.2,0,1,0,1.5,0.6c0.2,0.3,0.3,0.6,0.3,0.7H-94.5z"/>
		<path id="path145" d="M-87.7,278.4c0,0,0-0.2-0.1-0.3c-0.1-0.1-0.3-0.4-0.6-0.4c-0.4,0-0.6,0.2-0.6,0.3c-0.2,0.3-0.2,0.8-0.2,0.8
			c0,0.8,0.4,1.2,0.8,1.2c0.3,0,0.6-0.2,0.6-0.3c0.1-0.1,0.1-0.2,0.1-0.4l1.1,0.1c0,0.2-0.1,0.3-0.1,0.4c-0.2,0.6-0.6,0.8-0.8,0.9
			c-0.2,0.1-0.5,0.2-1,0.2c-0.7,0-1-0.2-1.3-0.4c-0.7-0.6-0.7-1.4-0.7-1.7c0-0.1,0-0.5,0.1-0.8c0.2-0.5,0.6-1.3,1.9-1.3
			c0.3,0,0.6,0.1,0.7,0.1c0.7,0.2,1.1,0.8,1.1,1.5L-87.7,278.4z"/>
		<path id="path147" d="M-84.8,280.9h-1.1v-5.4h1.1V280.9z"/>
		<path id="path151" d="M-81.4,279.7c0,0.1-0.1,0.1-0.1,0.2c-0.3,0.3-0.7,0.3-0.8,0.3c-0.3,0-0.4-0.1-0.5-0.2c0,0-0.1-0.1-0.1-0.2
			c0-0.1,0.1-0.2,0.2-0.3c0.1-0.1,0.2-0.1,0.4-0.1c0.2,0,0.3-0.1,0.5-0.1c0.2,0,0.3-0.1,0.4-0.1V279.7z M-80.3,278.3
			c0-0.2,0-0.4-0.1-0.6c-0.2-0.4-0.6-0.9-1.6-0.9c-0.6,0-1,0.1-1.2,0.3c-0.1,0.1-0.3,0.2-0.4,0.6c-0.1,0.2-0.1,0.3-0.1,0.5l1,0
			c0-0.2,0.1-0.4,0.4-0.5c0.1,0,0.2,0,0.3,0c0,0,0.3,0,0.4,0.1c0.1,0.1,0.2,0.2,0.2,0.3c0,0.2-0.3,0.3-0.3,0.3c-0.1,0-0.2,0-0.3,0
			l-0.3,0c-0.4,0.1-0.9,0.1-1.2,0.4c-0.5,0.3-0.5,0.8-0.5,1c0,0.9,0.7,1.2,1.5,1.2c0.4,0,0.8-0.1,1.1-0.4c0,0.1,0,0.2,0.1,0.3h1.2
			c-0.1-0.1-0.1-0.1-0.1-0.2c0-0.1,0-0.2,0-0.2c0-0.1,0-0.2,0-0.3V278.3z"/>
		<path id="path155" d="M-77.1,278.2c0-0.1,0-0.1-0.1-0.2c-0.1-0.1-0.3-0.3-0.6-0.3c-0.1,0-0.2,0-0.2,0c-0.2,0.1-0.3,0.2-0.3,0.3
			c0,0.1,0.1,0.2,0.2,0.2c0.1,0,0.3,0.1,0.4,0.1l0.4,0.1l0.4,0.1c0.4,0.1,0.7,0.2,0.9,0.6c0,0.1,0.1,0.3,0.1,0.5
			c0,0.1,0,0.4-0.2,0.8c-0.2,0.3-0.7,0.6-1.5,0.6c-0.9,0-1.3-0.3-1.5-0.6c-0.1-0.2-0.3-0.4-0.3-0.8h1.1c0,0,0,0.2,0.1,0.3
			c0.1,0.1,0.3,0.3,0.7,0.3c0,0,0.1,0,0.2,0c0,0,0.4-0.1,0.4-0.4c0-0.3-0.3-0.3-0.7-0.4c-0.7-0.2-1.1-0.2-1.4-0.5
			c-0.3-0.3-0.3-0.6-0.3-0.7c0-0.3,0.1-0.6,0.2-0.7c0.2-0.3,0.6-0.6,1.5-0.6c0.2,0,1,0,1.5,0.6c0.2,0.3,0.3,0.6,0.3,0.7H-77.1z"/>
		<path id="path159" d="M-73,278.2c0-0.1,0-0.1-0.1-0.2c-0.1-0.1-0.3-0.3-0.6-0.3c-0.1,0-0.2,0-0.2,0c-0.2,0.1-0.3,0.2-0.3,0.3
			c0,0.1,0.1,0.2,0.2,0.2c0.1,0,0.3,0.1,0.4,0.1l0.4,0.1l0.4,0.1c0.4,0.1,0.7,0.2,0.9,0.6c0,0.1,0.1,0.3,0.1,0.5
			c0,0.1,0,0.4-0.2,0.8c-0.2,0.3-0.7,0.6-1.5,0.6c-0.9,0-1.3-0.3-1.5-0.6c-0.1-0.2-0.3-0.4-0.3-0.8h1.1c0,0,0,0.2,0.1,0.3
			c0.1,0.1,0.3,0.3,0.7,0.3c0,0,0.1,0,0.2,0c0,0,0.4-0.1,0.4-0.4c0-0.3-0.3-0.3-0.7-0.4c-0.7-0.2-1.1-0.2-1.4-0.5
			c-0.3-0.3-0.3-0.6-0.3-0.7c0-0.3,0.1-0.6,0.2-0.7c0.2-0.3,0.6-0.6,1.5-0.6c0.2,0,1,0,1.5,0.6c0.2,0.3,0.3,0.6,0.3,0.7H-73z"/>
		<path id="path161" d="M-70,280.9h-1.1v-1.1h1.1V280.9z"/>
	</g>
</g>
</svg>
