<?xml version="1.0" encoding="utf-8"?>
<!-- Generator: Adobe Illustrator 27.8.0, SVG Export Plug-In . SVG Version: 6.00 Build 0)  -->
<svg version="1.1" id="Ebene_1" xmlns="http://www.w3.org/2000/svg" xmlns:xlink="http://www.w3.org/1999/xlink" x="0px" y="0px"
	 viewBox="0 0 225 148" style="enable-background:new 0 0 225 148;" xml:space="preserve">
<style type="text/css">
	.st0{fill:#FFFFFF;}
	.st1{clip-path:url(#SVGID_00000053546470167949279720000008597103735976694915_);}
	.st2{clip-path:url(#SVGID_00000107582161016525216880000003713565765270095496_);}
</style>
<g id="box">
	<rect y="0" class="st0" width="225" height="148"/>
</g>
<g id="layer1" transform="translate(52.439903,-476.81564)">
	<g id="g15902" transform="matrix(2.1025538,0,0,-2.1025538,-945.43842,1967.8152)">
		<g>
			<g>
				<defs>
					<rect id="SVGID_1_" x="-246.2" y="-257" width="1261.5" height="1554.4"/>
				</defs>
				<clipPath id="SVGID_00000087381440320021135400000017299002604789106110_">
					<use xlink:href="#SVGID_1_"  style="overflow:visible;"/>
				</clipPath>
				<g id="g15904" style="clip-path:url(#SVGID_00000087381440320021135400000017299002604789106110_);">
					<g id="g15910" transform="translate(500.6749,698.2117)">
						<path id="path15912" d="M-19.8-20.6c-0.1-0.1-0.1-0.2-0.1-0.5v-6.1l0,0c0,0-3.3,6-3.5,6.2c-0.1,0.2-0.2,0.3-0.4,0.4
							c-0.2,0.1-0.3,0.2-0.7,0.2h-1.1c-0.3,0-0.4-0.1-0.5-0.2s-0.1-0.2-0.1-0.5v-8.7c0-0.2,0.1-0.4,0.1-0.5c0.1-0.1,0.3-0.2,0.5-0.2
							h0.6c0.3,0,0.4,0.1,0.5,0.2s0.1,0.2,0.1,0.5v6.3l0,0c0,0,3.5-6.2,3.6-6.4c0.2-0.3,0.5-0.6,1-0.6h1.1c0.3,0,0.4,0.1,0.5,0.2
							s0.1,0.2,0.1,0.5v7.8H-4c0.1,0,0.2,0,0.3,0.1s0.1,0.2,0.1,0.4v0.6c0,0.2,0,0.3-0.1,0.4s-0.2,0.1-0.3,0.1h-15.4
							C-19.6-20.4-19.7-20.5-19.8-20.6 M-13.7-22.9c-2.3,0-3.6-1.8-3.6-3.8c0-2.1,1.4-3.9,3.7-3.9c1.1,0,2.2,0.4,2.9,1.2
							c0.3,0.3,0.5,0.8,0.5,1.1c0,0.1,0,0.2-0.1,0.2c-0.1,0.1-0.1,0.1-0.3,0.1h-1.1c-0.2,0-0.4-0.1-0.5-0.2
							c-0.3-0.5-0.8-0.7-1.4-0.7c-1,0-1.7,0.8-1.7,1.6h4.7c0.2,0,0.4,0,0.5,0.1s0.2,0.3,0.2,0.6c0,0.9-0.3,1.8-0.9,2.5
							C-11.5-23.4-12.4-22.9-13.7-22.9 M-6.5-22.9c-1.8,0-3.1-0.9-3.1-2.3c0-0.5,0.2-0.9,0.5-1.2c0.3-0.4,0.8-0.6,1.5-0.8l1.5-0.4
							c0.4-0.1,0.8-0.2,0.8-0.6c0-0.6-0.6-0.8-1.3-0.8c-0.3,0-0.6,0.1-0.9,0.2c-0.2,0.1-0.3,0.2-0.5,0.4c-0.1,0.2-0.1,0.3-0.3,0.4
							c0.1,0,0,0-0.1,0h-0.8c-0.2,0-0.3-0.1-0.3-0.1c-0.1-0.1-0.1-0.2-0.1-0.3c0-0.3,0.1-0.6,0.3-0.9c0.5-0.7,1.6-1.2,2.9-1.2
							s3.2,0.6,3.2,2.4c0,0.5-0.1,0.9-0.4,1.2c-0.3,0.4-0.8,0.7-1.5,0.9l-1.5,0.4c-0.6,0.2-0.9,0.3-0.9,0.7c0,0.4,0.3,0.7,1.1,0.7
							c0.5,0,0.9-0.1,1.1-0.4c0.2-0.2,0.2-0.4,0.4-0.5c0.1-0.1,0.2-0.1,0.4-0.1h0.8c0.1,0,0.2,0,0.3,0.1s0.1,0.2,0.1,0.3
							c0,0.4-0.2,0.8-0.6,1.1C-4.6-23.3-5.4-22.9-6.5-22.9 M-2.3-23.2h-0.4c-0.1,0-0.2,0-0.3-0.1s-0.1-0.2-0.1-0.4v-0.5
							c0-0.2,0-0.3,0.1-0.4s0.2-0.1,0.3-0.1h0.4v-3.4c0-0.9,0.2-1.4,0.7-1.8c0.4-0.4,0.9-0.6,1.8-0.6h0.6c0.1,0,0.2,0,0.3,0.1
							c0.1,0.1,0.1,0.2,0.1,0.4v0.6c0,0.2-0.1,0.3-0.1,0.4c0,0-0.1,0.1-0.3,0.1H0.7c-0.4,0-0.6,0.1-0.8,0.3
							c-0.2,0.2-0.3,0.5-0.3,0.9v3.2h1.2c0.1,0,0.2,0,0.3,0.1c0.1,0.1,0.1,0.2,0.1,0.4v0.5c0,0.2,0,0.3-0.1,0.4C1-23,0.9-23,0.8-23
							h-1.2v2.2c0,0.2-0.1,0.3-0.1,0.4c-0.1,0.1-0.2,0.2-0.5,0.2h-0.8c-0.2,0-0.4-0.1-0.5-0.2s-0.1-0.2-0.1-0.4
							C-2.3-21-2.3-23.2-2.3-23.2z M1.8-29.8c0-0.2,0.1-0.3,0.1-0.4c0.1-0.1,0.2-0.2,0.5-0.2h0.8c0.2,0,0.4,0.1,0.5,0.2
							s0.1,0.2,0.1,0.4v8.8c0,0.2-0.1,0.3-0.1,0.4c-0.1,0.1-0.2,0.2-0.5,0.2H2.4c-0.2,0-0.4-0.1-0.5-0.2c-0.1-0.1-0.1-0.2-0.1-0.4
							C1.8-21,1.8-29.8,1.8-29.8z M-15.4-25.9c0.1,0.8,0.7,1.4,1.7,1.4c0.9,0,1.6-0.6,1.7-1.4H-15.4z M11.1-21.9
							c0.1,0,0.2,0,0.3,0.1s0.1,0.2,0.1,0.4v0.6c0,0.2,0,0.4-0.1,0.5s-0.2,0.1-0.3,0.1s-0.2,0-0.4,0l-5.4-0.5
							c-0.2,0-0.2-0.1-0.3-0.1c0-0.2,0-0.3,0-0.4v-0.3c0-0.1,0-0.2,0.1-0.2c0.1-0.1,0.1-0.1,0.3-0.1L11.1-21.9L11.1-21.9z M8.1-22.9
							c-2.3,0-3.6-1.8-3.6-3.8c0-2.1,1.4-3.9,3.7-3.9c1.1,0,2.2,0.4,2.9,1.2c0.3,0.3,0.5,0.8,0.5,1.1c0,0.1,0,0.2-0.1,0.2
							C11.4-28,11.3-28,11.2-28h-1.1c-0.2,0-0.4-0.1-0.5-0.2c-0.3-0.5-0.8-0.7-1.4-0.7c-1,0-1.7,0.8-1.7,1.6h4.7
							c0.2,0,0.4,0,0.5,0.1s0.2,0.3,0.2,0.6c0,0.9-0.3,1.8-0.9,2.5C10.3-23.4,9.4-22.9,8.1-22.9 M6.5-25.9c0.1,0.8,0.7,1.4,1.7,1.4
							c0.9,0,1.6-0.6,1.7-1.4H6.5z"/>
					</g>
					<g id="g15914" transform="translate(471.0004,695.3475)">
						<path id="path15916" d="M-4.3-19.1C-6-16.5-7.6-15.6-8-15.2c-0.5,0.5-0.8,1-1.1,1.2c-0.5,0.6-1.2,1.2-2.3,1.2
							c-1,0-1.7-0.7-2-1.3c-0.1-0.2-0.1-0.4-0.2-0.4c-0.1-0.2-0.6-1-0.8-1.3h0.9l-0.4-0.8c0.5,0.1,0.8,0.2,1.3,0.2
							c0.4,0,0.7-0.1,0.8-0.4c0.2-0.5,0.2-2,0.7-3.1c0.4-1,1.3-2.1,2.4-2.8l0,0c0.1,0,0.1,0,0.1,0.1c0,0,0,0,0,0.1
							c-0.9,0.9-1.6,1.9-2,2.9s-0.3,2.5-0.7,3.2c-0.2,0.4-0.7,0.5-1.1,0.5c-0.3,0-0.7-0.1-0.8-0.1l0.4,0.6h-0.6
							c0.1,0.2,0.3,0.5,0.3,0.6c0.1,0.1,0.1,0.3,0.2,0.4c0.2,0.6,0.8,1,1.5,1c0.9,0,1.4-0.6,1.9-1.1c0.2-0.3,0.6-0.8,1.1-1.2
							c0.3-0.3,0.9-0.6,1.8-1.5c0.5-0.5,1.1-1.2,1.7-2.2c2.3-3.3,3.7-6.2,4.6-8.5l0,0c-2.4,1.6-4.4,3.1-6.1,5
							C-7.6-21.5-8.6-20-9.5-18c-0.1,0.1-0.1,0.3-0.2,0.4c0,0.1,0,0.1-0.1,0.1c0,0-0.1,0-0.1-0.1s0-0.2,0.1-0.4
							c0.5-2,1.8-3.9,3.2-5.4s3-2.8,4.3-3.8l1-2.9c0-0.1,0.1-0.1,0.1-0.2s0-0.1,0-0.1h-0.1h-0.3c-0.1,0-0.2,0-0.2,0.1
							c0,0-0.1,0.1-0.1,0.2C-2-29.8-2.5-28.3-2.6-28c0,0.1-0.1,0.1-0.1,0.1s-0.1,0-0.1-0.1c0,0,0-0.1,0-0.2c0.1-0.7,0.3-1.5,0.4-1.8
							c0-0.1,0.1-0.3,0.1-0.4s0-0.1-0.1-0.2L-2.9-31c0-0.1-0.1-0.1-0.1-0.1c-0.1,0-0.1,0.1-0.2,0.2c-0.4,1.7-0.9,3.7-1,4.3
							c0,0.1-0.1,0.2-0.1,0.2c-0.1,0-0.1,0-0.1-0.1v-0.1c0.1-0.6,0.4-2.7,0.8-4.7c0.1-0.3,0.2-0.5,0.5-0.5c0.1,0,0.3,0.1,0.4,0.2
							c0.2,0.2,0.2,0.2,0.5,0.5c0,0,0.2,0.1,0.4,0.1h0.7c0.2,0,0.3,0,0.3,0.1c0.1,0.1,0.1,0.2,0.1,0.3c0,0.1,0,0.3-0.1,0.4
							c-0.2,0.5-0.7,2.1-0.9,2.5l0,0c0.6-0.4,1.4-1,1.8-1c0.1,0,0.2,0.1,0.2,0.2C0.4-27.6-1-24-4.3-19.1"/>
					</g>
					<g id="g15918" transform="translate(437.2935,706.7568)">
						<path id="path15920" d="M13.3-25.1c0.1,0.2,0.3,0.4,0.6,0.4c0.4,0,0.6-0.3,0.6-0.6c0-0.2-0.1-0.4-0.3-0.5
							c0-0.1,0.1-0.2,0.1-0.3c0-0.4-0.2-0.7-0.7-0.8c-0.1-0.2-0.2-0.5-0.3-0.6c-0.3-0.3-0.6-0.3-0.6-0.4s0-0.1,0.2-0.1
							c0.5,0,1,0.3,1.1,0.8c0.5,0.2,0.8,0.7,0.8,1.1c0,0.1,0,0.2-0.1,0.3c0.1,0.1,0.3,0.4,0.3,0.7c0,0.3-0.1,0.6-0.4,0.8
							c-0.2,0.2-0.5,0.3-0.8,0.3c-0.5,0-0.8-0.3-0.9-0.5c-0.5,0-1.2-0.6-1.2-1.4h-0.1c0,0.3-0.3,0.5-0.6,0.5
							c-0.2,0.6-0.6,1.1-1.4,1.1c-0.1,0-0.2,0-0.3,0C9.1-24.1,8.8-24,8.5-24c-0.6,0-1.2-0.5-1.2-1.2c0-0.4,0.2-0.7,0.5-0.9v-0.1
							c0-0.5,0.6-1.3,1.4-1.3c0-0.1,0.2-0.3,0.3-0.3v-0.1h0.2c-1.1,0-1.6-0.6-1.6-0.9c-0.3-0.1-0.6-0.5-0.6-0.9
							c0-0.7,0.5-1.2,1.2-1.2c0.2,0,0.5,0.1,0.6,0.2c0.1,0,0.3-0.1,0.4-0.1c0.3,0,0.7,0.1,0.9,0.5h0.1c0.4,0,0.8,0.3,1,0.6
							c0,0.1,0.1,0.2,0.1,0.2c0,0.1,0,0.1-0.1,0.1s-0.1-0.1-0.2-0.2c-0.3-0.2-0.7-0.3-1.1-0.3c-0.2-0.3-0.4-0.4-0.7-0.4
							c-0.2,0-0.4,0.1-0.5,0.2c-0.1-0.1-0.3-0.2-0.5-0.2c-0.4,0-0.6,0.3-0.6,0.6c0,0.3,0.2,0.5,0.4,0.6c0,0.5,0.5,0.8,1.2,0.8
							c0.1,0,0.2,0,0.2,0c0.1,0.1,0.3,0.3,0.6,0.4c0.1,0,0.1,0,0.2,0l0.1,0.1c0,0,0,0.1-0.1,0.1c0,0-0.1,0-0.2,0
							c-0.3,0.1-0.6,0.2-0.8,0.7c-0.7,0-1.2,0.6-1.2,1.2l0,0c-0.2,0.1-0.4,0.3-0.4,0.6c0,0.4,0.3,0.6,0.6,0.6c0.2,0,0.4-0.1,0.5-0.3
							c0.1,0,0.2,0,0.3,0c0.5,0,1.1-0.3,1.2-1c0.7-0.1,0.8-0.6,0.9-0.9c0-0.1,0-0.2,0.1-0.2s0.1,0.1,0.1,0.2
							c0.1,0.2,0.1,0.4,0.3,0.6C12.2-25.6,12.7-25.1,13.3-25.1"/>
					</g>
					<g id="g15922" transform="translate(440.1505,699.0592)">
						<path id="path15924" d="M11.8-21.1c-0.2-0.3-0.4-0.5-0.9-1.1c-0.7-0.8-1-1.4-1.6-2.8c0.1,0,0.2,0,0.4,0c0.1,0,0.1,0,0.2,0
							l0.1,0.1c0.3,0.7,0.8,1.6,1.4,2.4l0.2,0.2c0.6,0.7,1,1.2,1.3,2.2c0.1,0.4,0.2,0.7,0.4,0.9c0.2,0.2,0.5,0.3,0.8,0.3
							c0.2,0,0.4-0.1,0.7-0.2c0.2-0.1,0.3-0.1,0.6-0.1c0.1,0,0.1,0,0.2,0l-0.3-0.4l0.4-0.3c-0.6-0.2-0.9-0.7-1-1c0-0.1,0-0.1,0-0.1
							s0-0.1,0.1-0.1s0.1,0,0.2,0.1c0.3,0.3,0.5,0.6,1.5,0.9l-0.7,0.5l0.5,0.8h-0.5c-0.3,0-0.5,0-0.8,0.1c-0.4,0.2-0.6,0.2-0.9,0.2
							c-0.4,0-0.8-0.1-1.1-0.4c-0.4-0.3-0.5-0.8-0.6-1.2C12.2-20.3,12.1-20.7,11.8-21.1"/>
					</g>
					<g id="g15926" transform="translate(442.4087,692.3728)">
						<path id="path15928" d="M10.6-17.6c-0.3-0.4-0.6-0.8-0.9-1.3c0.1,0,0.4-0.2,0.5-0.3c0.3,0.5,0.8,1.1,1.1,1.5s0.4,0.6,0.4,1.1
							c0,0.1,0,0.2,0,0.3c0,0.3,0.1,0.6,0.4,0.8c0.2,0.2,0.5,0.3,0.8,0.3s0.4-0.1,0.7-0.1c0.2,0,0.3,0,0.4,0.1h0.1l-0.2-0.5l0.5-0.2
							c-0.3-0.2-1-1.1-1-2.1c0-0.4,0.1-0.7,0.1-1c0,0,0-0.1,0.1-0.1c0,0,0.1,0,0.1,0.1v0.1c0,0.3,0,0.8,0.2,1.3
							c0.2,0.7,0.8,1.5,1.3,1.8l-0.8,0.4l0.3,0.8l-0.4-0.1c-0.2,0-0.4-0.1-0.6-0.1c-0.1,0-0.3,0-0.5,0.1c-0.1,0-0.3,0.1-0.5,0.1
							c-0.4,0-0.8-0.1-1-0.4c-0.5-0.5-0.5-1-0.6-1.4C11.1-17,11-17.1,10.6-17.6"/>
					</g>
					<g id="g15930" transform="translate(467.6031,691.774)">
						<path id="path15932" d="M-2.5-17.3C-2.6-17.2-2.6-17.2-2.5-17.3c-0.2,0.1-0.2,0-0.2,0c0-0.1,0-0.1,0.2-0.3
							c0.4-0.6,0.8-1.2,1.3-1.8c0.6-0.6,1.3-1.2,2-1.7L1-21.3h0.1c0,0,0.1,0,0.1,0.1c0,0,0,0,0,0.1c-0.7,0.6-1.4,1.4-2.1,2.1
							C-1.5-18.5-2.1-17.9-2.5-17.3"/>
					</g>
					<g id="g15934" transform="translate(436.0071,696.2215)">
						<path id="path15936" d="M14-19.6c0.1,0.1,0.3,0.4,0.4,0.5c-0.4,0.7-1,1.4-1.2,1.7L13-17.6C13.2-18,13.6-18.7,14-19.6"/>
					</g>
					<g id="g15938" transform="translate(428.8102,705.0874)">
						<path id="path15940" d="M17.7-24.2L17.7-24.2c-0.1,0.1,0,0.2,0,0.2s0,0,0.1,0c0.3-0.1,0.6-0.3,0.9-0.5
							c0.2-0.2,0.4-0.4,0.6-0.6l-0.2-0.2C18.9-25.2,18.1-24.6,17.7-24.2"/>
					</g>
					<g id="g15942" transform="translate(435.7715,701.7983)">
						<path id="path15944" d="M14.1-22.5l-0.3,0.2c0.2,0.4,0.4,0.7,0.6,1c0.2,0.2,0.3,0.3,0.5,0.5l0.1,0.1c0,0,0.1,0,0.1-0.1
							c0,0,0,0,0-0.1C14.8-21.4,14.3-22.2,14.1-22.5"/>
					</g>
					<g id="g15946" transform="translate(429.1147,697.2427)">
						<path id="path15948" d="M17.6-20.1c-0.1,0-0.1,0-0.1,0c-0.1,0-0.1,0-0.1,0.1v0.1c0.6,0.4,1.1,0.6,1.8,0.7l0.1-0.3L17.6-20.1z"
							/>
					</g>
					<g id="g15950" transform="translate(454.2989,704.8614)">
						<path id="path15952" d="M4.4-24.1c0,0.2,0.1,0.5,0.4,0.5c0.1,0,0.2,0,0.3-0.1c0.1-0.1,0.2-0.1,0.2-0.2s-0.1-0.2-0.2-0.3
							c-0.1-0.1-0.3-0.2-0.4-0.2C4.5-24.4,4.4-24.2,4.4-24.1"/>
					</g>
					<g id="g15954" transform="translate(444.3332,701.9946)">
						<path id="path15956" d="M9.6-22.6c0,0.2,0.1,0.4,0.4,0.4c0.1,0,0.2,0,0.3-0.1c0.1,0,0.1-0.1,0.1-0.1c0-0.1-0.1-0.2-0.2-0.3
							c-0.1-0.1-0.2-0.1-0.3-0.1C9.7-22.9,9.6-22.8,9.6-22.6"/>
					</g>
					<g id="g15958" transform="translate(446.6406,695.9366)">
						<path id="path15960" d="M8.4-19.4c0,0,0,0.1,0,0.2S8.5-19,8.7-19c0.1,0,0.2,0,0.3-0.1c0.1,0,0.1-0.1,0.1-0.2
							c0-0.2-0.3-0.4-0.5-0.4C8.5-19.7,8.4-19.6,8.4-19.4"/>
					</g>
					<g id="g15962" transform="translate(442.7721,683.546)">
						<path id="path15964" d="M10.4-13c-0.6,0-0.9,0.3-0.9,0.7c0,0.7,1.2,1.3,2.2,1.7L12-11c-0.6-0.3-1.9-0.8-1.9-1.3
							c0-0.2,0.1-0.3,0.5-0.3c0.7,0,1.4,0.3,2.1,0.7c0.1,0,0.1,0,0.2,0c0.1,0,0.1,0,0.2-0.1l0.1-0.2C12.4-12.5,11.4-13,10.4-13"/>
					</g>
					<g id="g15966" transform="translate(446.4247,683.1725)">
						<path id="path15968" d="M8.5-12.8c-0.6-0.3-1.3-0.6-1.8-0.6c-0.6,0-1.2,0.3-1.7,1c-0.2,0.3-0.4,0.7-0.5,1
							C4.3-11,4-10.8,3.6-10.8S2.8-11,2.4-11.1v-0.1c0-0.1,0.1-0.2,0.2-0.2c0.1,0,0.1,0,0.2,0c0.2,0.1,0.4,0.1,0.6,0.1
							c0.4,0,0.5-0.2,0.8-0.7l0.1-0.2c-0.2-0.1-0.8-0.1-1.2-0.1H2.9v-0.2c0-0.1,0-0.2,0.1-0.2s0.2,0,0.4,0c0.5,0,0.9,0.1,1.1,0.1
							c0.6-0.9,1.4-1.2,2.1-1.2s1.3,0.2,1.9,0.6V-12.8z"/>
					</g>
					<g id="g15970" transform="translate(447.7597,682.7307)">
						<path id="path15972" d="M7.8-12.5l-0.1,0.4c1,0.5,1.8,0.9,3.3,1.1c0-0.5,0-1.2,0.4-1.2s1.2,0.9,2.1,2.1
							c0.1-0.1,0.2-0.2,0.3-0.3l-0.2-0.3c-0.9-1.2-1.7-2.1-2.3-2.1s-0.8,0.7-0.8,1.2C9.6-11.7,8.7-12,7.8-12.5"/>
					</g>
					<g id="g15974" transform="translate(473.7398,702.4365)">
						<path id="path15976" d="M-5.8-22.8c-0.4,0-0.5,0.2-0.5,0.5c0,0.6,0.4,1.4,0.6,1.9h-0.6c-0.3-0.6-1.5-2.4-2.1-3.2L-8-24
							c0.3,0.4,0.7,1,1.1,1.6h0.1v-0.1c0-0.5,0.3-0.9,0.9-0.9c0.4,0,1.1,0.2,1.7,0.4c0.5,0.2,1,0.4,1.2,0.4v0.6
							c-0.3-0.1-0.8-0.3-1.3-0.5S-5.4-22.8-5.8-22.8"/>
					</g>
					<g id="g15978" transform="translate(476.3611,698.8726)">
						<path id="path15980" d="M-7.1-21c0.6,0.2,1.6,0.6,2.2,0.9v0.6c-1.2-0.4-3.2-1.3-4.6-2l0.3-0.4c0.6,0.2,1.1,0.4,1.6,0.4
							c0.7,0,1.2,0,2.1,0.2v0.4C-6-21-6.6-21.1-6.9-21.1c-0.2,0-0.3,0-0.3,0.1C-7.2-21-7.2-21-7.1-21"/>
					</g>
				</g>
			</g>
		</g>
	</g>
	<g id="g15982" transform="matrix(2.1025538,0,0,-2.1025538,3.2464737,509.99979)">
		<path id="path15984" d="M6-18.1l-0.2-0.4h2.4L8-18.1H6z"/>
	</g>
	<g id="g15986" transform="matrix(2.1025538,0,0,-2.1025538,-945.43842,1967.8152)">
		<g>
			<g>
				<defs>
					<rect id="SVGID_00000090280734582594012880000015072647662426141091_" x="-246.2" y="-257" width="1261.5" height="1554.4"/>
				</defs>
				<clipPath id="SVGID_00000145780086157138433130000000904411068638876585_">
					<use xlink:href="#SVGID_00000090280734582594012880000015072647662426141091_"  style="overflow:visible;"/>
				</clipPath>
				<g id="g15988" style="clip-path:url(#SVGID_00000145780086157138433130000000904411068638876585_);">
					<g id="g15994" transform="translate(433.1302,687.9642)">
						<path id="path15996" d="M15.5-15.3c0.3,0,0.5,0.1,0.7,0.2c0.2,0.1,0.4,0.2,0.6,0.2c0.6,0,1.3-0.3,2-0.6h0.1
							c0.1,0,0.2,0,0.2,0.1l0.1,0.2c-0.7,0.4-1.9,0.9-2.5,0.9c-0.3,0-0.5-0.1-0.7-0.1c-0.2-0.1-0.4-0.2-0.6-0.2
							c-0.5,0-1.7,0.5-1.7,0.9c0,0.5,1.9,0.7,2.1,0.7l0.2,0.4c-1.4,0-3.1-0.5-3.1-1.1c0-0.2,0.1-0.3,0.1-0.5c0-0.2-0.1-0.4-0.1-0.7
							c0-0.2,0.1-0.4,0.2-0.6c0.1-0.2,0.3-0.3,0.3-0.5c0-0.1-0.1-0.3-0.1-0.6c0-0.6,0.4-1,1.1-1.8l0.1-0.1c-0.6-0.2-1.7-0.7-1.9-0.8
							c-0.9-0.4-1.1-0.8-1.1-1.5c0-0.3,0-0.6,0-0.9h0.2c0.4,0,0.4,0.2,0.4,0.4c0,0.1,0,0.3,0,0.5c0,0.4,0,0.7,0.6,1
							c0.3,0.1,1.5,0.6,2.4,1c0.3,0.1,0.5,0.2,0.8,0.2s0.7-0.1,1.1-0.4c0.4-0.2,0.8-0.5,1.1-0.9l0.4,0.3c-0.3,0.4-0.8,0.8-1.3,1
							c-0.2,0.5-0.6,0.6-1,0.6c-0.2,0-0.3,0-0.4-0.1c-0.1,0-0.2-0.1-0.4-0.1s-0.3,0-0.5,0.3c-0.1,0.1-0.6,0.7-0.7,0.8
							c-0.1,0.1-0.1,0.2-0.1,0.4c0,0.1,0,0.2,0.1,0.3c0.4-0.3,1-0.5,1.6-0.6l-0.1,0.4c-0.9,0.2-1.9,1.1-1.9,1.6c0,0.1,0,0.2,0.1,0.3
							C14.2-14.9,15-15.3,15.5-15.3"/>
					</g>
					<g id="g15998" transform="translate(447.2593,687.7871)">
						<path id="path16000" d="M8.1-15.2c0.6,0.4,1.2,0.5,1.7,0.5c0.3,0,0.6,0,1-0.1c0.3,0,0.6-0.1,0.9-0.1c0.6,0,1.3,0.2,1.6,0.4
							c0.1-0.1,0.2-0.2,0.3-0.3c-0.1-0.1-1-0.6-1.9-0.6c-0.4,0-0.8,0-1.1,0.1c-0.3,0-0.6,0.1-0.9,0.1c-0.3,0-1-0.1-1.4-0.3L8.1-15.2
							z"/>
					</g>
					<g id="g16002" transform="translate(465.4921,684.282)">
						<path id="path16004" d="M-1.4-13.3c-0.7-1.5-1.8-2.6-2.9-3.2c-0.5-0.3-1-0.5-2-0.5h-2.2c-0.8,0-1.3-0.1-1.7-0.2
							s-0.7-0.2-1.1-0.2c-0.6,0-1.2,0.3-1.5,0.6l0.5,0.4l-0.3,0.3c-0.1-0.1-2-1.5-2.4-1.8l0,0c0,0.1,0,0.2,0,0.3
							c0,1-0.5,1.3-1.2,1.6l-0.5-0.3c1-0.3,1.2-0.6,1.2-1.3c0-0.6-0.2-0.8-0.5-1c-0.3-0.2-0.7-0.3-1-0.3c-0.1,0-0.2,0-0.3-0.1
							c-0.1-0.1-0.1-0.1-0.1-0.3v-0.2h0.1c0.6,0,1.2,0.1,1.8,0.6l2.1,1.6c0.3-0.3,1-0.8,1.9-0.8c0.5,0,0.8,0.1,1.3,0.2
							c0.4,0.1,0.7,0.2,1.5,0.2h2.2c1.1,0,1.7,0.2,2.3,0.6c1.3,0.7,2.4,2,3,3.4C-1.2-13.5-1.3-13.4-1.4-13.3"/>
					</g>
					<g id="g16006" transform="translate(458.0988,680.5901)">
						<path id="path16008" d="M2.4-11.4C3-10.5,3.5-9.7,4.7-9C4.6-9,4.4-8.8,4.3-8.8C3.8-9,3.4-9.4,3-9.8c-0.9-1-0.9-1.5-1.8-1.9
							C1-11.8,0.6-11.9,0.3-12c-0.2,0.7-0.8,1.4-1.4,1.4c-0.4,0-0.9-0.2-1.5-0.5c-0.7-0.3-1.3-0.6-1.5-0.7l0.3-0.3
							c0.2,0.1,0.8,0.4,1.3,0.6c0.5,0.2,0.9,0.4,1.2,0.4c0.5,0,0.8-0.5,1-1c-0.6-0.2-1.7-0.2-2-0.2c-0.1,0-0.2,0-0.2-0.1
							c0,0-0.1-0.1-0.1-0.2v-0.2h0.3c1.8,0,3.4,0.3,4.5,0.9c0.2,0,0.3-0.1,0.4-0.1c0.6,0,1.2,0.3,1.6,0.6c0.1,0.1,0.2,0.2,0.2,0.3
							s0,0.1,0,0.1v0.2c-0.6-0.4-1-0.8-1.6-0.8C2.6-11.4,2.5-11.4,2.4-11.4"/>
					</g>
					<g id="g16010" transform="translate(430.0615,650.2685)">
					</g>
					<g id="g16014" transform="translate(439.0743,650.1949)">
					</g>
					<g id="g16018" transform="translate(447.4737,650.1949)">
					</g>
					<g id="g16022" transform="translate(458.0938,650.3558)">
					</g>
				</g>
			</g>
		</g>
	</g>
</g>
</svg>
