<?xml version="1.0" encoding="utf-8"?>
<!-- Generator: Adobe Illustrator 27.8.0, SVG Export Plug-In . SVG Version: 6.00 Build 0)  -->
<svg version="1.1" id="Ebene_1" xmlns="http://www.w3.org/2000/svg" xmlns:xlink="http://www.w3.org/1999/xlink" x="0px" y="0px"
	 viewBox="0 0 225 148" style="enable-background:new 0 0 225 148;" xml:space="preserve">
<style type="text/css">
	.st0{fill:#FFFFFF;}
	.st1{fill:#1A171B;}
</style>
<g id="box">
	<rect y="0" class="st0" width="225" height="148"/>
</g>
<g id="layer1" transform="translate(4778.3553,368.93431)">
	<path id="path6381" class="st1" d="M-4665.9-269c-14.2,0-26-11.8-26-26c0-0.7,0-1.5,0.1-2.2l21.7,1.4l-9.4,6.5
		c-0.1,0.1-0.2,0.2-0.2,0.4c0,0.3,0.2,0.5,0.5,0.5h38.4C-4643.7-277.3-4653.9-269-4665.9-269 M-4665.9-320.9c14.2,0,26,11.8,26,26
		c0,0.7,0,1.5-0.1,2.2l-21.7-1.4l9.4-6.5c0.1-0.1,0.2-0.2,0.2-0.4c0-0.3-0.2-0.5-0.5-0.5h-38.4
		C-4688-312.6-4677.8-320.9-4665.9-320.9 M-4628.6-292l-7.1-0.5c0.1-0.8,0.1-1.6,0.1-2.4c0-16.7-13.5-30.2-30.2-30.2
		c-14.4,0-26.5,10.1-29.5,23.7h-5.6c-0.4,0-0.7,0.2-0.9,0.4l-1.7,2.3c-0.1,0.1-0.1,0.2-0.1,0.3c0,0.3,0.3,0.6,0.6,0.6l7.1,0.4
		c-0.1,0.8-0.1,1.6-0.1,2.5c0,16.7,13.5,30.2,30.2,30.2c14.4,0,26.5-10.1,29.5-23.7h5.6c0.4,0,0.7-0.2,0.9-0.4l1.7-2.3
		c0.1-0.1,0.1-0.2,0.1-0.3C-4628.1-291.8-4628.3-292-4628.6-292"/>
</g>
</svg>
