<?xml version="1.0" encoding="utf-8"?>
<!-- Generator: Adobe Illustrator 27.8.0, SVG Export Plug-In . SVG Version: 6.00 Build 0)  -->
<svg version="1.1" id="Ebene_1" xmlns="http://www.w3.org/2000/svg" xmlns:xlink="http://www.w3.org/1999/xlink" x="0px" y="0px"
	 viewBox="0 0 225 148" style="enable-background:new 0 0 225 148;" xml:space="preserve">
<style type="text/css">
	.st0{fill:#FFFFFF;}
</style>
<g id="box">
	<rect y="0" class="st0" width="225" height="148"/>
</g>
<path d="M180.9,61.7c-1.8-10.3-32.8-13.5-69.1-7.2c-15.4,2.7-29.1,6.6-39.9,11.1c1.6,0,2.9,0.4,3.6,1.1c0.6,0.6,0.9,1.4,0.9,2.3v1.1
	h-3.6v-0.9c0-0.7-0.5-1.2-1.2-1.2c-0.6,0-1.1,0.3-1.2,0.9c-0.1,0.2,0,0.5,0,0.7c0.4,1.5,5.7,2.5,6.2,5.4c0.1,0.4,0.2,1.1,0,2.3
	c-0.3,2.3-2.3,3.2-4.9,3.2c-3.6,0-5.1-1.7-5.1-4.1v-1.1h3.8v1.4c0,0.8,0.6,1.2,1.4,1.2c0.7,0,1.1-0.3,1.3-0.9c0.1-0.2,0.1-0.7,0-1
	c-0.7-1.8-5.7-2.6-6.3-5.5c-0.2-0.6-0.2-1.2,0-1.9c0.1-0.3,0.2-0.6,0.3-1c-11.9,5.6-18.9,11.7-18,17C51,95,81.9,98.2,118.3,91.9
	c16-2.7,30.4-7,41.3-11.6c-0.2,0-0.3,0-0.5,0c-2.5,0-4.7-1-4.9-3.5c-0.1-0.5-0.1-0.6-0.1-0.9V70c0-0.2,0-0.7,0.1-0.9
	c0.3-2.4,2.3-3.5,4.9-3.5c2.1,0,4.6,0.6,4.9,3.5c0,0.3,0,0.7,0,0.9v0.6h-3.6v-0.8c0,0,0-0.3-0.1-0.5c-0.1-0.3-0.3-1-1.4-1
	s-1.3,0.6-1.4,1c0,0.2-0.1,0.4-0.1,0.6v6.4c0,0.2,0,0.4,0,0.5s0.2,1,1.4,1c1.1,0,1.4-0.9,1.4-1c0-0.2,0-0.4,0-0.5v-1.9h-1.5v-2.1h5
	v3.8c0,0.2,0,0.5-0.1,0.9c-0.1,0.6-0.2,1.2-0.6,1.7C175.1,73,181.8,67,180.9,61.7L180.9,61.7z M86.5,80l-1.9-12.4h-0.1L82.7,80h-3.9
	l2.6-14h6.3l2.6,14L86.5,80L86.5,80z M105,80l-0.1-12.2h-0.1L102.6,80h-3.6l-2.3-12.2h-0.1L96.5,80h-3.6l0.3-14H99l1.7,10.4h0.1
	l1.7-10.4h5.7l0.3,14C108.5,80,105,80,105,80z M121.9,77.3c-0.4,2.7-3.1,3.2-4.9,3.2c-3.2,0-5-1.3-5-4v-1.1h3.8v1.4
	c0,0.7,0.6,1.2,1.4,1.2c0.7,0,1.1-0.3,1.3-0.9c0.1-0.2,0.1-0.6,0-1c-0.7-1.8-5.6-2.6-6.2-5.4c-0.2-0.6-0.2-1.2,0-1.9
	c0.4-2.6,2.9-3.1,4.9-3.1c1.8,0,3.1,0.4,3.8,1.1c0.6,0.6,0.9,1.4,0.9,2.3v1.1h-3.6v-0.9c0-0.7-0.5-1.2-1.2-1.2
	c-0.6,0-1.1,0.3-1.2,0.9c-0.1,0.2,0,0.5,0,0.7c0.4,1.5,5.7,2.5,6.2,5.3C122,75.4,122,76.2,121.9,77.3z M135,76c0,0.2,0,0.8,0,0.9
	c-0.2,2.3-1.9,3.5-4.9,3.5c-3.1,0-4.7-1.2-4.9-3.5c0-0.3,0-0.6,0-0.9V66h3.6v10.4c0,0.2,0,0.4,0,0.5c0.1,0.2,0.2,1,1.3,1
	s1.2-0.7,1.3-1c0-0.2,0-0.3,0-0.5V66h3.6L135,76L135,76z M150.6,79.8h-5l-3.4-11.1h-0.1l0.2,11.1h-3.5V66h5.3l3.2,10.7h0.1L147.1,66
	h3.6L150.6,79.8L150.6,79.8z"/>
</svg>
