<?xml version="1.0" encoding="utf-8"?>
<!-- Generator: Adobe Illustrator 27.8.0, SVG Export Plug-In . SVG Version: 6.00 Build 0)  -->
<svg version="1.1" id="Ebene_1" xmlns="http://www.w3.org/2000/svg" xmlns:xlink="http://www.w3.org/1999/xlink" x="0px" y="0px"
	 viewBox="0 0 225 148" style="enable-background:new 0 0 225 148;" xml:space="preserve">
<style type="text/css">
	.st0{fill:#FFFFFF;}
</style>
<g id="box">
	<rect y="0" class="st0" width="225" height="148"/>
</g>
<circle cx="116.2" cy="76.3" r="29.2"/>
<g>
	<path class="st0" d="M96.6,67.3v9.1h-2.1v-9.1h-2.8v-1.3h7.7v1.3H96.6z M104.6,76.4v-4.7c0-1.3-0.3-2-1.2-2c-0.4,0-0.8,0.2-1,0.5
		c-0.4,0.4-0.5,0.9-0.5,2v4.2H100V66h1.9v3.5h0c0.5-0.7,1.3-1,2.1-1c2,0,2.5,1.5,2.5,2.6v5.3H104.6L104.6,76.4z M115.1,88.4
		c-3.1,0-4.5-2.3-4.5-5.3c0-3,1.8-5.3,4.8-5.3c1.3,0,2.2,0.4,2.5,0.5l-0.4,1.3c-0.4-0.2-1.2-0.4-1.9-0.4c-1.3,0-2.9,0.8-2.9,3.8
		c0,2.8,1.1,4,2.7,4c0.8,0,1.6-0.3,1.9-0.4l0.4,1.2C117.3,87.9,116.4,88.4,115.1,88.4z M111,76.6c-2,0-3.5-1.1-3.5-4
		c0-2.9,1.5-4,3.5-4c2,0,3.5,1.1,3.5,4C114.4,75.5,112.9,76.6,111,76.6z M111,69.7c-1,0-1.5,0.8-1.5,2.9c0,2,0.5,2.9,1.5,2.9
		c1,0,1.5-0.8,1.5-2.9C112.5,70.6,112,69.7,111,69.7z M124.5,76.4v-4.7c0-1.3-0.2-2-1.1-2c-0.4,0-0.7,0.2-1,0.5
		c-0.4,0.4-0.5,0.8-0.5,1.9v4.2h-1.9v-4.7c0-1.3-0.2-2-1.1-2c-0.4,0-0.7,0.2-1,0.5c-0.4,0.4-0.5,0.9-0.5,2v4.2h-1.9v-7.7h1.8
		l0.1,0.8h0c0.5-0.7,1.2-1,2.1-1c1.2,0,1.9,0.6,2.2,1.2c0.3-0.5,1.2-1.2,2.3-1.2c2,0,2.5,1.5,2.5,2.6v5.3H124.5z"/>
	<path class="st0" d="M121.3,88.3c-2,0-3.5-1.1-3.5-4c0-2.9,1.5-4,3.5-4c2,0,3.5,1.1,3.5,4C124.8,87.2,123.3,88.3,121.3,88.3z
		 M121.3,81.5c-1,0-1.5,0.9-1.5,2.9c0,2,0.5,2.8,1.5,2.8c1,0,1.5-0.8,1.5-2.8C122.8,82.3,122.4,81.5,121.3,81.5z M128.9,88.3
		c-2,0-3.5-1.1-3.5-4c0-2.9,1.5-4,3.5-4c2,0,3.5,1.1,3.5,4C132.4,87.2,130.9,88.3,128.9,88.3z M128.9,81.5c-1,0-1.5,0.9-1.5,2.9
		c0,2,0.5,2.8,1.5,2.8c1,0,1.5-0.8,1.5-2.8C130.4,82.3,130,81.5,128.9,81.5z M131.8,76.4v-0.8c-0.4,0.6-1.2,1-2.1,1
		c-1.7,0-2.5-1.1-2.5-2.4c0-1.9,1.9-2.8,4.5-2.8v-0.5c0-0.6-0.2-1.1-1.4-1.1c-0.9,0-1.9,0.5-2.2,0.6l-0.4-1.2
		c0.5-0.2,1.5-0.7,2.9-0.7c1.9,0,2.9,0.9,2.9,2.4v5.5H131.8z M131.7,72.4c-1.6,0-2.6,0.7-2.6,1.7c0,0.7,0.4,1.2,1.1,1.2
		c0.5,0,0.9-0.3,1.2-0.6c0.2-0.3,0.3-0.8,0.3-1.3V72.4L131.7,72.4z M137.8,88.2l-2.6-3.9v3.9h-1.9V77.8h1.9V84l2.6-3.5h1.9l-2.7,3.4
		l3,4.3H137.8z M137.1,76.6c-0.8,0-1.8-0.2-2.5-0.6l0.3-1.2c0.6,0.3,1.5,0.6,2.2,0.6c0.6,0,1.2-0.2,1.2-0.9c0-1.4-3.7-1.6-3.7-3.8
		c0-1.6,1.5-2.1,2.9-2.1c0.7,0,1.6,0.2,2.3,0.5l-0.2,1.2c-0.4-0.2-1.3-0.5-1.8-0.5c-0.4,0-1.1,0.2-1.1,0.8c0,1.4,3.5,1.3,3.5,3.8
		C140.1,76,138.6,76.6,137.1,76.6L137.1,76.6z"/>
</g>
</svg>
