<?xml version="1.0" encoding="utf-8"?>
<!-- Generator: Adobe Illustrator 27.8.0, SVG Export Plug-In . SVG Version: 6.00 Build 0)  -->
<svg version="1.1" id="Ebene_1" xmlns="http://www.w3.org/2000/svg" xmlns:xlink="http://www.w3.org/1999/xlink" x="0px" y="0px"
	 viewBox="0 0 225 148" style="enable-background:new 0 0 225 148;" xml:space="preserve">
<style type="text/css">
	.st0{fill:#FFFFFF;}
</style>
<g id="box">
	<rect y="0" class="st0" width="225" height="148"/>
</g>
<g id="layer1_00000087395244042178476370000004590332218038204332_" transform="translate(-47.836681,-348.16307)">
	<g id="g2305" transform="translate(17.639488,17.647201)">
		<path id="path28" d="M145,366.7c-10.5,0-19,8.5-19,19c0,4.3,1.5,8.3,3.9,11.5l15.8-20.7l-1.7,0h-1.7c-1.8,0-3.5,0.1-4.7,0.4
			c-0.7,0.1-1.4,0.4-1.9,0.8c-0.6,0.4-1.4,1.4-1.9,2.3c-0.1,0.1-0.1,0.3-0.3,0.5l-0.9-0.2l1.5-5.9h19.7l-15.7,21
			c1-0.1,1.4-0.1,2.3-0.1c0.6,0,1.6,0,2.9,0.1l2.8,0.2c1,0.1,1.9,0.1,2.5,0.1c1.4,0,2.4-0.1,3.3-0.4c0.7-0.2,1.4-0.6,2-1
			c1.1-0.8,2.2-2,2.8-3.2c0.1-0.1,0.2-0.3,0.3-0.6l0.8,0.2c-0.3,1-0.4,1.4-0.8,2.4c-0.8,1.9-1.8,3.1-3.1,4.1c-1.3,1-2.8,1.5-4.6,1.5
			h-0.3c-1.3,0-2.3-0.1-5.4-0.6c-3.2-0.5-4.8-0.7-6.4-0.7c-1.1,0-2.1,0.1-3.1,0.3c-1.4,0.2-1.9,0.4-3.1,0.9c3.5,3.8,8.4,6.1,14,6.1
			c10.5,0,19-8.5,19-19C164,375.2,155.5,366.7,145,366.7"/>
		<path id="path30" d="M109.3,417.8H94.8l-1.8,4c0.6-0.3,0.8-0.4,1.4-0.6c0.8-0.3,1.7-0.6,2.6-0.8c0.8-0.1,1.5-0.2,2.6-0.2
			c0.5,0,1,0,1.4,0h2.1l-11.3,16.2h16l1.9-4.2c-0.7,0.4-0.9,0.5-1.4,0.7c-0.9,0.4-2,0.7-3,0.9c-0.8,0.1-1.8,0.2-2.9,0.3
			c-0.4,0-0.9,0-1.5,0h-2.8L109.3,417.8"/>
		<path id="path32" d="M158.1,436.2c-0.3-0.3-0.4-0.4-0.6-0.7c-0.1-0.2-0.2-0.4-0.3-0.6c-0.2-0.4-0.3-1-0.3-1.6v-11.1l0-1.1
			c0-1.2,0-1.6,0.2-2.1c0.1-0.2,0.2-0.4,0.3-0.6c0.2-0.3,0.3-0.5,0.7-0.8h-5.9c0.4,0.3,0.5,0.5,0.7,0.7c0.1,0.2,0.2,0.4,0.3,0.6
			c0.1,0.5,0.2,0.9,0.2,2c0,0.6,0,0.9,0,1.1v11.1c0,0.7-0.1,1.3-0.3,1.8c-0.1,0.2-0.2,0.4-0.3,0.5c-0.1,0.2-0.2,0.3-0.6,0.7H158.1"
			/>
		<path id="path34" d="M176.6,417.9c-0.5-0.1-0.6-0.2-1.1-0.3c-1.1-0.2-2.1-0.3-3.3-0.3c-2,0-3.7,0.3-5.3,1
			c-0.9,0.4-1.8,0.9-2.5,1.5c-2.3,1.8-3.5,4.5-3.5,7.6c0,3,1.2,5.5,3.4,7.2c1.8,1.4,4.1,2.1,6.9,2.1c1.7,0,3.4-0.3,5.2-0.8
			c0.1,0,0.2,0,0.3-0.1v-3.4c-0.4,0.3-0.6,0.4-0.9,0.5c-0.4,0.2-0.7,0.4-1.1,0.6c-1.1,0.5-2.1,0.7-3.2,0.7c-1.9,0-3.6-0.7-4.8-2
			c-1.2-1.3-1.8-3.1-1.8-5.1c0-1.9,0.6-3.7,1.7-5c0.5-0.6,1-1,1.7-1.4c1-0.6,2.3-0.9,3.6-0.9c1.1,0,2.2,0.2,3.3,0.7
			c0.7,0.3,0.9,0.4,1.5,0.8V417.9"/>
		<path id="path36" d="M192.8,427.8v4.5c0,1,0,1.4-0.1,1.9c0,0.3-0.1,0.6-0.2,0.8c-0.1,0.3-0.3,0.7-0.7,1c-0.1,0.1-0.1,0.1-0.3,0.2
			h5.9c-0.2-0.2-0.3-0.4-0.5-0.6c-0.2-0.2-0.3-0.4-0.3-0.6c-0.2-0.4-0.2-0.8-0.2-1.7c0-0.6,0-0.9,0-1l0-10.2v-1.1
			c0-0.8,0.1-1.4,0.2-2c0.1-0.2,0.2-0.5,0.3-0.7c0.2-0.3,0.3-0.5,0.7-0.8h-6c0.3,0.3,0.5,0.4,0.7,0.8c0.1,0.2,0.2,0.4,0.3,0.6
			c0.1,0.4,0.2,1,0.2,1.9v4.5h-8.3v-3.4c0-1,0-1.7,0.1-2.2c0-0.3,0.1-0.6,0.1-0.8c0.1-0.4,0.5-0.9,0.8-1.3c0,0,0.1-0.1,0.2-0.2h-5.9
			c0.4,0.4,0.4,0.5,0.6,0.7c0.1,0.2,0.2,0.4,0.3,0.6c0.2,0.5,0.2,0.7,0.2,2l0,1.2v10.1c0,1,0,1.5-0.1,2c0,0.2-0.1,0.5-0.2,0.7
			c-0.1,0.4-0.4,0.7-0.7,1c0,0-0.1,0.1-0.2,0.2h5.8c-0.3-0.3-0.4-0.4-0.5-0.6c-0.1-0.2-0.2-0.4-0.3-0.6c-0.2-0.5-0.3-0.8-0.3-1.6
			c0-0.4,0-0.8,0-1.1v-4.5H192.8"/>
		<path id="path44" d="M138.9,426.7c0.3,0,0.6,0,1-0.1c1-0.1,1.7-0.4,2.3-0.8c0.4-0.2,0.6-0.4,0.9-0.7c0.5-0.5,0.7-1.2,0.7-2.1
			c0-1-0.3-1.7-0.9-2.3c-0.4-0.3-0.8-0.5-1.2-0.7c-0.7-0.2-1.6-0.3-2.5-0.3c-0.2,0-0.3,0-0.5,0v6.8
			C138.8,426.7,138.8,426.7,138.9,426.7z M138.6,432.4c0,0.3,0,0.6,0,0.9c0,0.8,0.1,1.3,0.2,1.7c0.1,0.2,0.2,0.4,0.3,0.6
			c0.2,0.2,0.2,0.3,0.5,0.6h-5.9c0.3-0.3,0.5-0.4,0.6-0.7c0.1-0.2,0.2-0.4,0.3-0.6c0.2-0.4,0.2-0.9,0.2-1.8v-12.1c0-1-0.1-1.6-0.2-2
			c-0.1-0.2-0.2-0.5-0.3-0.7c-0.2-0.3-0.3-0.4-0.6-0.7h4.8c0.6,0,1.2,0,1.7,0c1.5,0,2.3,0.1,3.2,0.3c1.2,0.3,2.3,0.9,3,1.7
			c0.8,0.9,1.2,1.9,1.2,3c0,0.5-0.1,0.9-0.2,1.4c-0.3,0.8-0.7,1.5-1.4,2.1c-0.7,0.5-1.4,0.9-2.3,1.3c-0.3,0.1-0.5,0.2-0.8,0.3
			l2.9,3.4c0.3,0.4,0.8,0.9,1.3,1.5c0.9,0.9,1.4,1.5,2.1,2.1c0.3,0.3,0.6,0.5,0.8,0.7c0.2,0.2,0.4,0.3,0.7,0.6h-2.3
			c-0.4,0-0.7,0-1,0c-0.8,0-1.3-0.2-1.8-0.4c-0.6-0.3-1.2-0.8-1.9-1.5c-0.2-0.2-0.5-0.5-0.9-1c-0.4-0.4-0.6-0.7-0.8-0.9l-3.4-4.1
			V432.4"/>
		<path id="path46" d="M130.8,417.8h-5.9c0.4,0.3,0.5,0.4,0.7,0.7c0.1,0.2,0.2,0.4,0.3,0.6c0.1,0.5,0.2,0.9,0.2,1.9v7
			c0,1.5,0,2.4-0.2,3.1c-0.1,0.5-0.2,0.9-0.5,1.4c-0.4,0.8-1.3,1.3-2.3,1.6c-0.4,0.1-0.8,0.1-1.3,0.1c-1.6,0-2.9-0.6-3.6-1.6
			c-0.5-0.8-0.7-1.5-0.7-3.4l0-1.5v-5.6c0-1.1,0-1.6,0-2.2c0-0.3,0.1-0.6,0.1-0.8c0.1-0.4,0.4-1,0.8-1.3c0,0,0.1-0.1,0.1-0.2h-6
			c0.4,0.3,0.5,0.4,0.7,0.8c0.1,0.2,0.2,0.4,0.3,0.6c0.1,0.3,0.1,0.6,0.1,0.8c0,0.2,0,0.6,0,1.1l0,1.1v5.3c0,2,0,2.5,0.1,3.3
			c0.1,1.3,0.5,2.4,1.3,3.4c1.4,1.8,3.6,2.7,6.5,2.7c1.4,0,2.7-0.2,3.7-0.6c1.1-0.4,2-1,2.7-1.8c0.8-0.9,1.3-2.1,1.5-3.6
			c0.1-0.8,0.1-1.8,0.1-3.3v-5.3l0-1V421c0-0.8,0-1.3,0.2-1.7c0.1-0.3,0.2-0.5,0.3-0.8C130.3,418.2,130.4,418.1,130.8,417.8"/>
		<path id="path48" d="M204.1,411.8h0.5c0.5,0,1.2-0.2,1.2-0.8c0-0.8-0.6-0.8-1.2-0.8h-0.5V411.8z M203.6,409.7h1.2
			c0.8,0,1.4,0.4,1.4,1.2c0,0.6-0.5,1-1,1.1v0c0.4,0,0.6,0.2,0.7,0.6l0.8,1.8h-0.5l-0.7-1.6c-0.3-0.6-0.6-0.6-1-0.6h-0.4v2.2h-0.5
			V409.7"/>
		<path id="path50" d="M205,415.4c-1.9,0-3.4-1.5-3.4-3.4c0-1.9,1.5-3.4,3.4-3.4c1.9,0,3.4,1.5,3.4,3.4
			C208.4,413.9,206.9,415.4,205,415.4z M205,408.2c-2.1,0-3.8,1.7-3.8,3.8c0,2.1,1.7,3.8,3.8,3.8c2.1,0,3.8-1.7,3.8-3.8
			C208.8,409.9,207.1,408.2,205,408.2"/>
	</g>
</g>
</svg>
