<?xml version="1.0" encoding="utf-8"?>
<!-- Generator: Adobe Illustrator 27.8.0, SVG Export Plug-In . SVG Version: 6.00 Build 0)  -->
<svg version="1.1" id="Ebene_1" xmlns="http://www.w3.org/2000/svg" xmlns:xlink="http://www.w3.org/1999/xlink" x="0px" y="0px"
	 viewBox="0 0 373.9 88.7" style="enable-background:new 0 0 373.9 88.7;" xml:space="preserve">
<g>
	<path d="M52.5,71c0,4.9-1.5,8.5-4.4,10.9s-7.1,3.5-12.6,3.5c-5.9,0-10.4-1.3-13.6-3.9c-3.2-2.6-4.7-6.3-4.7-11.1
		c0-2.1,0.4-3.9,1.1-5.4c0.7-1.5,1.7-2.8,2.9-3.8c1.2-1,2.6-1.8,4.1-2.2v-0.1c-1.5,0-2.9,0.1-4.3,0.1s-2.7,0-4.1,0h-14v-1.7h49v1.4
		l-7.3,0.1v0.1c1.4,0.5,2.7,1.3,3.9,2.3c1.2,1,2.2,2.3,2.9,3.9C52.1,66.8,52.5,68.7,52.5,71z M50.8,71c0-4.3-1.4-7.4-4.2-9.2
		c-2.8-1.8-6.7-2.7-11.8-2.7h-0.2c-5.2,0-9.1,0.9-11.8,2.8c-2.7,1.9-4.1,4.8-4.1,8.6c0,4.3,1.4,7.5,4.2,9.8c2.8,2.3,7,3.4,12.5,3.4
		c5.2,0,9-1,11.6-3.1S50.8,75.3,50.8,71z"/>
	<path d="M5.3,45c0-0.8,0.2-1.3,0.6-1.5s0.9-0.3,1.4-0.3c0.6,0,1,0.1,1.4,0.3s0.6,0.7,0.6,1.5c0,0.6-0.2,1.1-0.6,1.3
		s-0.9,0.3-1.4,0.3s-1-0.1-1.4-0.3C5.5,46.1,5.3,45.6,5.3,45z M17.7,44.1h34.1v1.7H17.7V44.1z"/>
	<path d="M17.1,19.8c0-2.9,0.7-5.3,2.1-7.1s3.3-3.1,5.7-4C27.3,7.8,30,7.4,33,7.4h1.6v25.3c5.2,0,9.2-1.1,12-3.4
		c2.8-2.3,4.2-5.7,4.2-10.1c0-2.1-0.2-3.8-0.5-5.3s-0.9-3.2-1.8-5.2h1.7c0.7,1.6,1.3,3.3,1.6,4.9s0.5,3.5,0.5,5.6
		c0,3.6-0.8,6.5-2.3,8.7c-1.5,2.3-3.6,3.9-6.2,5s-5.6,1.6-8.9,1.6c-3.2,0-6.2-0.5-8.9-1.6c-2.7-1.1-4.9-2.7-6.6-4.9
		C17.9,25.8,17.1,23.1,17.1,19.8z M18.7,19.8c0,3.6,1.2,6.6,3.6,8.9c2.4,2.3,6,3.6,10.7,4V9.2c-2.8,0-5.3,0.3-7.5,1.1
		c-2.1,0.8-3.8,2-5,3.5C19.3,15.4,18.7,17.4,18.7,19.8z"/>
</g>
<g>
	<path d="M132.7,85.5h-16.6V51.6H85v33.9H68.4V7H85v30.8h31.1V7h16.6V85.5z"/>
	<path d="M176,24.3c5.6,0,10.4,1.1,14.4,3.2c4,2.1,7.1,5.2,9.3,9.2c2.2,4,3.3,9,3.3,14.8v7.9h-38.7c0.1,4.6,1.5,8.2,4.1,10.9
		c2.6,2.6,6.2,4,10.8,4c3.9,0,7.4-0.4,10.6-1.2s6.4-2,9.8-3.6v12.7c-2.9,1.5-6,2.5-9.3,3.2s-7.2,1-11.8,1c-6,0-11.3-1.1-16-3.4
		c-4.6-2.2-8.2-5.6-10.9-10.2c-2.6-4.5-4-10.3-4-17.2c0-7,1.2-12.9,3.6-17.5c2.4-4.7,5.7-8.2,10-10.5
		C165.4,25.5,170.3,24.3,176,24.3z M176.1,36c-3.2,0-5.8,1-7.9,3.1c-2.1,2.1-3.3,5.2-3.7,9.6h23c0-2.4-0.4-4.6-1.3-6.5
		c-0.8-1.9-2.1-3.4-3.8-4.5C180.8,36.5,178.7,36,176.1,36z"/>
	<path d="M224.5,1.9c2.4,0,4.5,0.6,6.3,1.7c1.8,1.1,2.6,3.2,2.6,6.3c0,3-0.9,5.1-2.6,6.3c-1.8,1.2-3.9,1.8-6.3,1.8
		c-2.5,0-4.6-0.6-6.3-1.8c-1.7-1.2-2.6-3.3-2.6-6.3c0-3.1,0.9-5.2,2.6-6.3C219.9,2.4,222,1.9,224.5,1.9z M232.6,25.4v60.1h-16.4
		V25.4L232.6,25.4L232.6,25.4z"/>
	<path d="M268.8,86.6c-6.7,0-12.1-2.6-16.3-7.9c-4.2-5.2-6.3-13-6.3-23.2c0-10.3,2.1-18,6.4-23.3s9.8-7.9,16.7-7.9
		c2.9,0,5.4,0.4,7.6,1.2s4.1,1.8,5.7,3.1s2.9,2.8,4,4.5h0.6c-0.2-1.2-0.5-2.9-0.8-5.1c-0.3-2.2-0.4-4.5-0.4-6.9V1.9h16.4v83.6h-12.5
		l-3.2-7.8h-0.8c-1,1.6-2.3,3.1-3.9,4.5s-3.4,2.4-5.6,3.2C274.3,86.2,271.7,86.6,268.8,86.6z M274.5,73.5c4.5,0,7.7-1.3,9.6-4
		c1.8-2.7,2.8-6.7,2.9-12v-1.8c0-5.9-0.9-10.3-2.7-13.4c-1.8-3.1-5.1-4.6-10-4.6c-3.6,0-6.4,1.6-8.5,4.7c-2.1,3.1-3.1,7.6-3.1,13.5
		s1,10.3,3.1,13.3C267.9,72,270.8,73.5,274.5,73.5z"/>
	<path d="M344.2,24.3c5.6,0,10.4,1.1,14.4,3.2c4,2.1,7.1,5.2,9.3,9.2c2.2,4,3.3,9,3.3,14.8v7.9h-38.7c0.1,4.6,1.5,8.2,4.1,10.9
		c2.6,2.6,6.2,4,10.8,4c3.9,0,7.4-0.4,10.6-1.2s6.4-2,9.8-3.6v12.7c-2.9,1.5-6,2.5-9.3,3.2s-7.2,1-11.8,1c-6,0-11.3-1.1-16-3.4
		c-4.6-2.2-8.2-5.6-10.9-10.2c-2.6-4.5-4-10.3-4-17.2c0-7,1.2-12.9,3.6-17.5c2.4-4.7,5.7-8.2,10-10.5
		C333.6,25.5,338.5,24.3,344.2,24.3z M344.3,36c-3.2,0-5.8,1-7.9,3.1s-3.3,5.2-3.7,9.6h23c0-2.4-0.4-4.6-1.3-6.5
		c-0.8-1.9-2.1-3.4-3.8-4.5C349,36.5,346.8,36,344.3,36z"/>
</g>
</svg>
