<?xml version="1.0" encoding="utf-8"?>
<!-- Generator: Adobe Illustrator 27.8.0, SVG Export Plug-In . SVG Version: 6.00 Build 0)  -->
<svg version="1.1" xmlns="http://www.w3.org/2000/svg" xmlns:xlink="http://www.w3.org/1999/xlink" x="0px" y="0px"
	 viewBox="0 0 510.2 283.5" style="enable-background:new 0 0 510.2 283.5;" xml:space="preserve">
<style type="text/css">
	.st0{fill:#010202;}
</style>
<g id="Bunny">
	<g>
		<path d="M349.7,194.4c0.3,2.4,1.7,4.4,2.2,7c0.8,3.5,1,7.3,1.6,10.9c0.2,2.1,0.8,5.3-1.6,6.4c-2.1,0.8-3.8,0.3-5.9,0.7
			c-5,0.3-6.6,0.2-8.2,5.3c-0.4,1.1-1.4,3.5-1.1,4.2c1.3,1.5,3.6,1,5.7,1.3c1.4,0.2,2.4,0.7,3.4,0.6l-0.7,0.6c0.1-0.2-0.2-1-0.6-1.7
			c-1.5-2-1.6-5.1-0.7-7.4c-0.3,2.4,0.1,4.9,1.8,6.7c0.6,0.8,1.3,1.5,1.2,2.8c0,0-0.1,0.5-0.1,0.5c-1.5,0.4-3.3,0-4.4-0.1
			c-4.9,0.2-9.9-0.3-7.6-6.8c0.8-2.6,1.4-5,3.4-7.1c2.4-2,5.2-1.8,7.9-2c1.5-0.3,3.5,0.1,4.9-0.3c0.2-0.1,0.2,0,0.3-0.4
			c0.2-1.1,0.1-2.2,0.1-3.3c-0.3-3.5-0.2-7.5-0.4-10.9C350.5,199.3,349.4,196.8,349.7,194.4L349.7,194.4z"/>
	</g>
	<g>
		<path d="M366.9,206.6c0.6,3,0.1,6-0.3,9c-0.3,1.9-1.1,3.3-0.3,5.1c1.5,2.5,2.5,5.9,2.5,8.9c0,1.9-0.2,3.9-1.7,5.2
			c-5.3,3.9-14.1-1.6-19.5-3.3c5.5-0.1,11.4,3,16.7,1.6c1.3-0.5,1.5-1.5,1.5-3.5c0-1.8-0.3-3.7-0.8-5.3c-0.4-1.2-1.4-3-1.5-4.5
			c-0.1-1.6,0.7-3.3,1.2-4.6C365.6,212.3,366.5,209.6,366.9,206.6L366.9,206.6z"/>
	</g>
	<g>
		<path d="M369.1,230.8c2.4-0.9,4.6-0.4,6.9-0.1c0.7,0.1,1.7,0.1,2.6,0.6c-0.7,0.7-1.2,1.2-2.1,1.7
			C373.8,234.1,370.8,233,369.1,230.8L369.1,230.8z"/>
	</g>
	<g>
		<path d="M380.9,208.6c0.3,2.4,1.4,4.5,2,7c0.7,3.1,0.5,6.3,0,9.4c-0.5,2.6-1.7,5.4-1.2,8c0.1,0.2,0.1,0.2,0.2,0.2
			c2.2,0.5,4.7-0.2,7,0c0,0,1.8,0.1,1.8,0.1c2.6,0.2,4-0.7,6.6-1.5c1.1-0.4,3.1-0.1,4,0.3c0.4,0.1,0.5-0.1,0.8-0.3
			c2-2,1.2-5.5-0.5-7.6c1,0.7,1.8,1.7,2.3,2.9c1.2,2.3,0.4,7-2.9,6.9c-0.9-0.1-1.3-0.3-1.7-0.2c-1.7,0.1-2.8,1.1-4.7,1.8
			c-2,0.7-3.9,0.6-5.8,0.6c-1.9,0-3.4,0.3-5.4,0.3c-8.2,0-3.5-9.1-2.6-13.6c0.4-2.3,0.7-4.6,0.6-6.9
			C381.3,213.5,380.5,211.1,380.9,208.6L380.9,208.6z"/>
	</g>
	<g>
		<path d="M403.9,233.1c1.8-0.2,3.6,0,5.3-0.4c0.5-0.1,1-0.3,1-0.5c1-3.8,0.6-9.3-3.3-11.1c-3-1.3-6.5-1.9-9.8-1.7
			c-5-0.1-5.4-4.2-4.7-8.3c0.2-3,1.6-6.1,2.3-8.8c0.6-2.3,0.9-4.6,1.3-7c0.3,2.4,0.4,4.8,0.2,7.3c-0.3,2.5-1,4.8-1.2,7
			c0,2.1-0.4,5.1,0.3,6.2c0.4,0.5,1.1,0.7,1.9,0.7c2.4-0.2,5.1,0.1,7.4,0.8c7.8,1.5,9.9,8.9,6.9,15.7c-0.4,0.7-1.4,1-2.1,1
			C407.4,233.9,405.7,233.4,403.9,233.1L403.9,233.1z"/>
	</g>
	<g>
		<path d="M343.2,216.6c-0.9-1.2-2-2-3.1-3.2c-0.9-1.3-1.6-2.6-2.3-3.9c-2.6-5.4-4.2-11.2-4.2-17.2c0-2.2,0.1-4.5,0.8-6.7
			c0.3-0.7,0.5-1.5,1.2-1.9c-0.4,0.6-0.4,1.4-0.4,2.1c0.4,7.8,2.4,15.5,4.7,22.9c0.4,1.3,0.8,2.8,1.3,4
			C341.9,213.8,343,215.1,343.2,216.6L343.2,216.6z"/>
	</g>
	<g>
		<path d="M409.1,182.8c0.2,1.6,1.1,2.6,1.7,4.2c0.5,1.7,0.6,3.2,0.6,4.7c0.2,3.6,0.5,7.9-0.9,11.6c-1.8,5-4.2,10.1-8.2,13.7
			c1.9-4,3.4-8.4,4.7-12.5c0,0,0.7-2.1,0.7-2.1c1.3-4,0.9-8.5,1.6-12.9C409.8,187.1,408.4,185,409.1,182.8L409.1,182.8z"/>
	</g>
	<g>
		<path d="M412.1,174.9c1.3-0.2,2.1-1.3,3.4-1.8c1.3-0.5,2.7-0.7,4.1-0.4c9,2.9,10.7,16.8,10.1,24.8c-0.6,7.2-11.3,16.1-18.4,12.8
			c-1.2-0.6-2.2-1.7-2.7-2.9c5.7,7.1,17.6-3.6,18.2-10.1c0.3-7.1-0.4-19.6-7.6-23.2c-1.1-0.4-2.3-0.5-3.5-0.2
			C414.5,174.1,413.3,175.1,412.1,174.9L412.1,174.9z"/>
	</g>
	<g>
		<path d="M333.7,174.1c0.3,4.6,2.3,9.4,6.6,11.4c2.1,0.9,4.5,1.9,6.5,2.9c1.6,0.7,3.5,1.1,5.1,2.1c2.1,1.5,3.4,3.7,5.1,5.6
			c1.4,1.9,2.4,3.8,4.4,4.9c0,0,0.8,0.5,0.8,0.5c1.5,1.2,3.1,1.6,5,1.5c0,0,1.8,0,1.8,0c4.4-0.2,9.4-0.2,13.4-2
			c4.2-2,6.3-7,10.3-9.5c5.9-3.4,13.7-5.2,16.2-12.2c1.5-4.4,3-9.1,3.2-13.8c0.4,4.8-0.6,9.6-1.8,14.3c-1.6,6.3-7.9,9.5-13.2,12.3
			c-3.3,1.3-5.4,3.7-7.6,6.6c-1.5,1.9-3.4,3.8-5.8,5c-3.6,1.8-7.2,1.9-11,2.2c-2.5,0.1-4.9,0.2-7.4,0c-2.1-0.2-3.8-1.3-5.4-2.5
			c-2.2-1.3-3.6-3.7-4.9-5.7c-1.5-1.7-2.6-3.8-4.2-5.2c-1.4-1-3.1-1.3-4.7-2.2c-2.2-1.2-4.1-2.2-6.4-3.4
			C335.2,184.4,333.4,178.9,333.7,174.1L333.7,174.1z"/>
	</g>
	<g>
		<path d="M365.1,189.5c0,0.4,0.3,0.7,0.6,0.7c4.4-0.2,5.9-5.1,8.3-8c0.9-1.2,2.1-2.4,3.3-3.2c0.4-0.3,0.8-0.5,0.8-0.9
			c0-0.2-0.1-0.2,0.1,0c0.2,0.1,0.2,0,0.1,0.1c-0.2,0-0.5,0.2-0.8,0.3c-1,0.5-1.9,1.3-3.1,1.7c-2.8,0.8-5.7-0.2-8.1-1.7
			c-0.5-0.3-1.2-0.4-1.3-0.3c0,0,0,0,0,0c0,0,0,0,0,0c0.8,2,3.1,3.2,5,4.1c2.8,1.2,4.9,3.5,7.4,5.1c3.3,2.3,8.4,3.8,11.7,0.6
			c1-1,1.6-2.4,1.7-3.9c0,0.7,0,1.5-0.2,2.2c-1.2,4-6,5.3-9.7,4.2c-3-0.8-5.6-2.6-8-4.4c-2.3-2-5.4-2.5-7.7-4.6
			c-1.1-1-2.9-2.8-1.8-4.5c1.3-1.6,3.5-0.5,4.8,0.4c1.9,1,4.1,1.7,6.1,1c1.2-0.6,2.3-1.5,3.7-1.7c1.4-0.2,2,1.1,1.5,2.3
			c-0.3,0.7-0.9,1.1-1.5,1.5c-4.5,2.3-6.7,10.6-12.6,10.1C365.3,190.3,365.1,189.9,365.1,189.5L365.1,189.5z"/>
	</g>
	<g>
		<path d="M336.1,134.4c-6.7,0.7-14.1-1.5-18.9-6.5c-11.2-10.2-19.1-23.4-26.5-36.4c-4.6-8.5-11.6-20.1-15.6-28.9
			c-2.2-5.1-4.2-10.1-6.1-15.3c-1.6-4.5-4.4-11.2,0-15.1c5.6-4.2,13.3,1.2,18.8,3.2c22.2,10.2,47,34.8,59.1,55.9
			c5.5,9.3,8.9,21.2,4.2,31.5c2-5.1,2.1-10.7,1-16c-5.5-24.1-43.1-59-65.4-68.8c0,0-3.8-1.6-3.8-1.6c-3.3-1.4-7.1-3.5-10.7-2.6
			c-4.9,1.7-1.6,8.8-0.5,12.4c1.8,5.1,3.8,10.2,5.9,15.1c4.5,9.8,10.2,19.2,15.1,28.9c6.9,13.2,14.5,26.2,25.1,36.7
			C322.4,132.1,329.3,134.6,336.1,134.4L336.1,134.4z"/>
	</g>
	<g>
		<path d="M352.9,122.9c3.7-3.9,9.8-3.2,14.7-3.6c4.8-0.2,11.6-1.1,15.4,2.6c0,0-1.2,0.5-1.2,0.5c-0.2-4.7-0.2-9.6,0.3-14.3
			c0.6-7-0.2-14.8,2.8-21.4c5.2-10.3,19-10.2,28.6-7.3c4.2,1.3,8.3,2.3,11.8,5.2c5.8,4.8,8.8,11.9,10.9,18.9c1.4,4.6,2.5,9.3,3.3,14
			c0.9,4.7,1.6,9.4,2.2,14.2c1,9.6,0.2,19.3-1.5,28.7c-0.7,4.1-1.6,8.1-2,12.2c-0.1,1.9,0.3,3.9-0.2,6c-1.4,3.8-4.7,2.6-6.8,0.1
			c-4-4.6-6.4-10.2-9-15.6c-2.5-5.4-4.8-10.9-7.2-16.3c-1.5-3.2-1.7-7-3.9-9.9c1.6,1.8,2.3,4.2,3.1,6.4c2.7,6.5,6.1,12.8,9.2,19.2
			c2.2,4.1,4.3,8.4,7,12.3c2.8,3.9,6.5,7.5,5.7-0.4c-0.2-4.8,1.1-9.6,1.7-14.3c0.7-4.7,1.3-9.3,1.5-14c0.6-9.4-0.9-18.7-2.6-27.9
			c-0.9-4.6-1.9-9.2-3.3-13.7c-1.9-6.5-4.6-13.2-9.9-17.6c-2.9-2.4-7.2-3.5-10.8-4.7c-8.5-2.6-20.8-3.1-25.7,5.7
			c-3,6.5-2.3,13.5-3.2,20.6c-0.6,4.7-0.7,9.4-0.7,14.1c0,0,0,2,0,2s-1.3-1.6-1.3-1.6c-1.5-1.8-4.3-2.2-6.6-2.5
			c-2.5-0.3-5.1-0.3-7.7-0.2C362.7,120.2,356.8,119.2,352.9,122.9L352.9,122.9z"/>
	</g>
	<g>
		<path class="st0" d="M307.7,105.1c2.2,3.4,4.4,6.8,6.7,10c5.1,7.1,11.7,13.5,20.4,15.8c4.7,1.2,6.6-2.3,7-6.2
			c0.5-4.2,1-6.5-1.5-14.5c-1.2-3.9-2.4-7.4-4.2-11c-3-5.8-6.9-11.2-10.9-16.3c-8.1-10.1-16.8-19.6-27.1-27.5
			c-4-3.1-8.1-6.2-12.5-8.8c-2.4-1.5-7.1-5.2-8-0.4c-0.6,3.3,2.3,6.7,3.5,9.5c5.1,12.1,11.7,23.5,18.1,35
			C301.9,95.4,304.7,100.3,307.7,105.1z"/>
		<path class="st0" d="M307.7,105.1c5.1,7.8,10.2,16.1,18.1,21.5c1.9,1.3,4,2.4,6.2,3.3c2.1,0.7,4.6,1.8,6.7,0.6
			c2.1-1.2,2.7-3.7,2.9-6c0.3-2.3,0.5-4.7,0.2-7c-0.7-4.6-2.3-9.1-3.9-13.5c-3.5-8.7-9.3-16.3-15.3-23.5c-6-7.2-12.4-14.2-19.5-20.4
			c-5.3-4.6-11-8.9-16.9-12.7c0,0-3-1.9-3-1.9c-1.4-0.8-3-2-4.5-1.2c-2.8,3.3,1,7.7,2.3,10.9C288.6,72.5,298.1,89,307.7,105.1
			L307.7,105.1z M307.7,105.1c-9.7-16.1-19.3-32.5-27-49.7c-1.6-3.4-5.6-8.1-2.3-11.7c1.8-1.1,3.8,0.3,5.3,1.1c0,0,3,1.9,3,1.9
			c6,3.8,11.6,8.1,17.1,12.7c7.2,6.2,13.6,13.2,19.6,20.5c6,7.3,11.8,15,15.2,23.9c1.6,4.5,3.1,9,3.8,13.7c0.3,2.4,0,4.8-0.3,7.1
			c-0.3,2.3-1,5-3.2,6.2c-3.6,1.9-10.1-2-13.2-4C317.9,121.3,312.8,113,307.7,105.1L307.7,105.1z"/>
	</g>
	<g>
		<path class="st0" d="M391.4,115.1c0,4.5,1.5,9.3,6.1,11c1.6,0.6,9.2,3.5,10.4,2.1c0.7-0.7-2.9-9.5-3.2-10.6
			c-1.3-4-2.8-7.9-4.4-11.8c-1.4-3.4-3-6.9-4.5-10.3c-0.7-1.5-1.9-6-3.6-6.6c-0.3,4.6,0.3,9.3-0.1,13.9
			C391.8,107,391.3,111,391.4,115.1z"/>
		<path class="st0" d="M391.4,115.1c0.3,9.6,4.9,11.2,13.3,13.1c1,0.1,2.2,0.5,3.1-0.1c0-0.2,0-0.3,0-0.5c-0.7-3.4-2.3-6.6-3.4-9.8
			c-2.3-6.9-5.7-14.6-8.6-21.3c-1.2-2.3-1.4-5.5-3.6-7.1c0,0,0.4-0.3,0.4-0.3c-0.3,4.3,0.1,8.7-0.2,13
			C391.9,106.4,391.4,110.8,391.4,115.1L391.4,115.1z M391.4,115.1c-0.1-4.3,0.4-8.7,0.7-13c0.2-4.5-0.4-9-0.2-13.5
			c0,0,0.4,0.2,0.4,0.2c2.5,1.5,2.9,5,4.1,7.4c3.4,7.4,6.8,15.6,9.3,23.3c0.9,2.8,2.2,5.6,2.5,8.6c0,0.3-0.2,0.5-0.4,0.6
			c-0.4,0.2-0.8,0.2-1.1,0.2c-2.1-0.1-4.1-0.8-6.1-1.5C393.9,125.5,391.5,121.9,391.4,115.1L391.4,115.1z"/>
	</g>
	<g>
		<g>
			<path class="st0" d="M355.6,133.8c-5.4,0.4-10.4,1.2-14.6,2.5l2.5,5.6L355.6,133.8z"/>
			<path class="st0" d="M355.6,133.8c-4.8,0.7-9.8,1.5-14.4,2.9c0,0,0.3-0.7,0.3-0.7c0.8,1.8,1.7,3.7,2.5,5.6c0,0-0.7-0.2-0.7-0.2
				C347.2,138.8,351.6,136.4,355.6,133.8L355.6,133.8z M355.6,133.8c-4.1,2.8-8.1,6-12.3,8.7c-0.9-2-1.8-4-2.7-6.1
				c0,0-0.2-0.5-0.2-0.5C345.3,134.5,350.5,133.9,355.6,133.8L355.6,133.8z"/>
		</g>
		<g>
			<path class="st0" d="M399,135.6c-9.7-1.3-26.4-2.8-41-1.9l-13.5,17l6.3,25.8l-10.2-18.8l-9.5,9.1c0.3,0.9,0.7,1.9,1.1,2.8
				c6.7,12.7,23.9,14.9,28.7,6.3c4.9-7.1,6-10.8,6-10.8l3-0.4h4.5c0,0,5.2,13.1,11.9,14.2c7.8,2.6,19.8-0.4,23.9-11.6
				C414.3,156.1,413.2,137.4,399,135.6z"/>
			<path class="st0" d="M399,135.6c-13.6-1.7-27.3-2.6-41-1.8c0.3-0.3-13.4,17.1-13.4,17c0-1,6.5,25.8,6.5,25.5c0,0-0.7,0.3-0.7,0.3
				l-10.2-18.8l0.7,0.1l-9.5,9.1l0.1-0.5c2,6.3,7.5,11.4,14,13.2c5.2,1.6,12.1,1,15.1-4.1c2.3-3.4,4.6-7,6-11c0,0,0.2,0,0.2,0
				c0,0,3-0.4,3-0.4c0,0,4.5,0,4.5,0c0,0,0.2,0,0.2,0s0.1,0.2,0.1,0.2c1.9,4.3,4.1,8.7,7.6,11.9c1.2,1,2.5,1.9,4.1,2.2
				c8,2.6,17.6-0.6,22-7.9C414.7,160,414.5,137.7,399,135.6L399,135.6z M399,135.6c15.6,2.2,15.7,24.4,9.6,35.3
				c-4.3,7.5-14.3,10.8-22.3,8.3c-6.1-1.5-9.8-9-12.2-14.3c0,0,0.3,0.2,0.3,0.2l-4.5,0l0,0l-3,0.4l0.3-0.3c-1.4,4-3.7,7.5-6,11
				c-0.6,1.2-1.8,2.5-3.1,3.3c-6.5,4.1-15.2,1.7-20.8-2.8c-2.3-1.9-4.2-4.2-5.6-6.9c0,0-1.1-2.9-1.1-2.9s-0.1-0.3-0.1-0.3l0.2-0.2
				l9.5-9.1c0,0,0.4-0.4,0.4-0.4l0.3,0.5l10.1,18.8c0,0-0.7,0.3-0.7,0.3l-6.2-25.8l0-0.1l0.1-0.1c0,0,13.6-16.9,13.7-16.9
				C371.7,132.9,385.4,133.8,399,135.6L399,135.6z"/>
		</g>
		<g>
			<path class="st0" d="M337.7,141.8l1-4.8c-1.5,0.6-4.2,2-6.4,4.6L337.7,141.8z"/>
			<path class="st0" d="M337.7,141.8c0.2-1.4,0.4-3.5,0.7-4.9c0,0,0.6,0.5,0.6,0.5c-2.4,1.1-4.5,2.6-6.2,4.5l-0.3-0.7
				C333.9,141.3,336.2,141.6,337.7,141.8L337.7,141.8z M337.7,141.8c-2.1,0.2-4.2,0.3-6.2,0.3c1.9-2.7,4.7-4.7,7.9-5.7
				C338.9,138.2,338.3,140.1,337.7,141.8L337.7,141.8z"/>
		</g>
		<g>
			<path class="st0" d="M336,151.1l-4.4-8.3c-3,4.3-4.8,11.5-0.7,23L336,151.1z"/>
			<path class="st0" d="M336,151.1c-1.6-2.8-3.2-5.5-4.7-8.2c0,0,0.5,0,0.5,0c-2.2,3.3-3,7.2-2.9,11.1c0.1,3.9,1,7.8,2.3,11.5
				c0,0-0.8,0-0.8,0C332.2,160.7,334,156,336,151.1L336,151.1z M336,151.1c-1.6,5.3-3.3,10.7-5.2,16c-1.5-4.2-2.8-8.5-2.8-13
				c-0.1-4.2,1-8.6,3.6-12C333.1,145.1,334.6,148.2,336,151.1L336,151.1z"/>
		</g>
	</g>
</g>
<g id="RawNormal">
	<g>
		<path class="st0" d="M126.1,213.1c-0.4-0.2-0.9-0.4-1.5-0.7c-0.6-0.2-1.2-0.4-1.9-0.6c-0.7-0.2-1.5-0.3-2.4-0.5
			c-0.9-0.1-1.9-0.2-3-0.2c-1.3,0-2.5,0.1-3.5,0.2c-1,0.2-1.9,0.4-2.6,0.7c-0.7,0.3-1.3,0.7-1.6,1.2c-0.4,0.5-0.6,1.1-0.6,1.7
			c0,0.6,0.2,1.1,0.5,1.5s0.8,0.8,1.4,1.1c0.6,0.3,1.3,0.6,2.1,0.9s1.7,0.5,2.6,0.8c0.9,0.2,1.8,0.5,2.8,0.7c1,0.2,1.9,0.5,2.8,0.8
			c0.9,0.3,1.8,0.6,2.6,0.9c0.8,0.3,1.5,0.7,2.1,1.2c0.6,0.5,1.1,1,1.4,1.6c0.4,0.6,0.5,1.3,0.5,2c0,0.8-0.2,1.6-0.5,2.2
			s-0.7,1.2-1.3,1.6s-1.2,0.8-1.9,1.1c-0.7,0.3-1.5,0.5-2.3,0.7s-1.7,0.3-2.5,0.4c-0.9,0.1-1.7,0.1-2.6,0.1c-1.9,0-3.7-0.1-5.3-0.4
			c-1.6-0.3-3.1-0.7-4.5-1.2v-2.5c1.5,0.9,3,1.5,4.7,1.8s3.4,0.5,5.2,0.5c1.3,0,2.5-0.1,3.6-0.2s2-0.4,2.8-0.7
			c0.8-0.3,1.4-0.8,1.9-1.3c0.4-0.5,0.7-1.2,0.7-2c0-0.6-0.2-1.2-0.5-1.6c-0.4-0.5-0.8-0.9-1.4-1.2c-0.6-0.4-1.3-0.7-2.1-0.9
			c-0.8-0.3-1.7-0.5-2.6-0.8c-0.9-0.2-1.8-0.5-2.8-0.7c-1-0.2-1.9-0.5-2.8-0.7s-1.8-0.6-2.6-0.9c-0.8-0.3-1.5-0.7-2.1-1.1
			s-1.1-0.9-1.4-1.5c-0.4-0.6-0.5-1.2-0.5-2c0-0.8,0.1-1.4,0.4-2c0.3-0.6,0.7-1.1,1.2-1.5s1.1-0.8,1.7-1.1c0.7-0.3,1.4-0.5,2.1-0.7
			c0.8-0.2,1.5-0.3,2.4-0.4c0.8-0.1,1.6-0.1,2.4-0.1c0.9,0,1.7,0,2.5,0.1c0.8,0.1,1.5,0.2,2.2,0.3s1.4,0.3,2.1,0.4
			c0.7,0.2,1.4,0.3,2.1,0.5V213.1z"/>
		<path class="st0" d="M134.3,232.1v-22.4h18.7v1.9h-16.5v7.7h15.6v1.9h-15.6v9h16.7v1.9H134.3z"/>
		<path class="st0" d="M161.5,222.6v9.6h-2v-22.4h11.2c1.7,0,3.2,0.1,4.4,0.4c1.2,0.3,2.2,0.7,3,1.2s1.3,1.2,1.7,2s0.5,1.7,0.5,2.8
			c0,1.7-0.4,3-1.3,4c-0.9,1-2.3,1.7-4.3,2.1l7.6,9.9h-2.6l-7.2-9.7c-0.3,0-0.6,0-0.9,0s-0.6,0-1,0H161.5z M178.2,216.2
			c0-1-0.2-1.7-0.5-2.3c-0.3-0.6-0.9-1.1-1.6-1.4c-0.8-0.3-1.8-0.5-3-0.7c-1.2-0.1-2.8-0.2-4.5-0.2h-7v9h6.9c1.8,0,3.3-0.1,4.6-0.2
			c1.2-0.1,2.2-0.3,3-0.6s1.3-0.8,1.7-1.4C178,217.9,178.2,217.2,178.2,216.2z"/>
		<path class="st0" d="M198.3,232.1h-3l-11.2-22.4h2.3l10.5,21l10.5-21h2.3L198.3,232.1z"/>
		<path class="st0" d="M214.3,232.1v-22.4h2v22.4H214.3z"/>
		<path class="st0" d="M244.5,231.3c-0.8,0.3-1.6,0.5-2.4,0.7c-0.8,0.2-1.7,0.3-2.6,0.5c-0.9,0.1-1.9,0.2-3,0.2
			c-1.3,0-2.6-0.1-3.8-0.3c-1.2-0.2-2.4-0.5-3.4-1c-1.1-0.4-2-1-2.9-1.6c-0.9-0.6-1.6-1.4-2.2-2.3c-0.6-0.9-1.1-1.8-1.4-2.9
			s-0.5-2.3-0.5-3.5c0-1.3,0.2-2.5,0.5-3.5s0.8-2,1.4-2.9c0.6-0.9,1.4-1.6,2.2-2.3c0.9-0.6,1.8-1.2,2.9-1.6c1.1-0.4,2.2-0.8,3.4-1
			c1.2-0.2,2.5-0.3,3.8-0.3c1.1,0,2.1,0.1,3,0.2c0.9,0.1,1.8,0.3,2.6,0.5s1.6,0.4,2.4,0.7c0.8,0.3,1.5,0.6,2.3,0.9v2.4
			c-0.6-0.4-1.3-0.8-2-1.1s-1.5-0.7-2.3-0.9c-0.8-0.3-1.7-0.5-2.6-0.6c-0.9-0.2-1.9-0.2-3-0.2c-2.2,0-4,0.2-5.6,0.7
			c-1.6,0.5-2.9,1.1-3.9,2c-1,0.9-1.8,1.9-2.3,3.1c-0.5,1.2-0.7,2.6-0.7,4.1s0.2,2.9,0.7,4.1c0.5,1.2,1.3,2.2,2.3,3.1
			c1,0.9,2.3,1.5,3.9,2s3.4,0.7,5.6,0.7c1.1,0,2.1-0.1,3-0.2c1-0.2,1.8-0.4,2.7-0.6c0.8-0.3,1.6-0.6,2.3-0.9
			c0.7-0.3,1.3-0.7,1.9-1.1v2.4C246.1,230.7,245.3,231,244.5,231.3z"/>
		<path class="st0" d="M252.9,232.1v-22.4h18.7v1.9h-16.5v7.7h15.6v1.9h-15.6v9h16.7v1.9H252.9z"/>
	</g>
	<g>
		<path class="st0" d="M149.6,182.5c-0.5-0.3-1.1-0.5-1.8-0.8s-1.4-0.5-2.3-0.8c-0.9-0.2-1.8-0.4-2.9-0.6c-1.1-0.2-2.3-0.2-3.6-0.2
			c-1.6,0-3,0.1-4.3,0.3c-1.3,0.2-2.3,0.5-3.2,0.9c-0.9,0.4-1.5,0.9-2,1.5c-0.5,0.6-0.7,1.3-0.7,2.1c0,0.7,0.2,1.3,0.6,1.8
			c0.4,0.5,1,1,1.8,1.4s1.6,0.8,2.6,1.1s2,0.6,3.1,0.9c1.1,0.3,2.2,0.6,3.4,0.9c1.2,0.3,2.3,0.6,3.4,0.9c1.1,0.3,2.2,0.7,3.1,1.1
			c1,0.4,1.9,0.9,2.6,1.5c0.7,0.6,1.3,1.2,1.8,1.9c0.4,0.7,0.6,1.5,0.6,2.5c0,1-0.2,1.9-0.6,2.7c-0.4,0.8-0.9,1.4-1.6,2
			c-0.7,0.6-1.4,1-2.3,1.4c-0.9,0.4-1.8,0.7-2.8,0.9c-1,0.2-2,0.4-3.1,0.4c-1.1,0.1-2.1,0.1-3.2,0.1c-2.4,0-4.5-0.2-6.5-0.5
			c-1.9-0.3-3.8-0.8-5.5-1.4v-3c1.8,1.1,3.7,1.8,5.7,2.2s4.1,0.6,6.3,0.6c1.6,0,3-0.1,4.3-0.3s2.5-0.5,3.4-0.9
			c1-0.4,1.7-0.9,2.3-1.6c0.5-0.6,0.8-1.4,0.8-2.4c0-0.8-0.2-1.4-0.6-2c-0.4-0.6-1-1.1-1.8-1.5s-1.6-0.8-2.6-1.1s-2-0.6-3.1-0.9
			s-2.2-0.6-3.4-0.8c-1.2-0.3-2.3-0.6-3.4-0.9c-1.1-0.3-2.1-0.7-3.1-1.1c-1-0.4-1.8-0.9-2.6-1.4s-1.3-1.2-1.8-1.9
			c-0.4-0.7-0.6-1.5-0.6-2.4c0-0.9,0.2-1.7,0.5-2.4c0.3-0.7,0.8-1.3,1.4-1.8c0.6-0.5,1.3-1,2.1-1.3c0.8-0.4,1.7-0.6,2.6-0.8
			c0.9-0.2,1.9-0.4,2.9-0.4c1-0.1,2-0.1,2.9-0.1c1.1,0,2.1,0,3,0.1s1.9,0.2,2.7,0.4s1.7,0.3,2.6,0.5c0.8,0.2,1.7,0.4,2.6,0.6V182.5z
			"/>
		<path class="st0" d="M159.5,205.8v-27.3h22.8v2.3h-20.1v9.4h19.1v2.3h-19.1v11h20.4v2.3H159.5z"/>
		<path class="st0" d="M215.5,204.7c-0.9,0.3-1.9,0.6-2.9,0.9c-1,0.2-2.1,0.4-3.2,0.6s-2.3,0.2-3.6,0.2c-1.6,0-3.2-0.1-4.7-0.4
			c-1.5-0.3-2.9-0.7-4.2-1.2c-1.3-0.5-2.5-1.2-3.5-2c-1-0.8-1.9-1.7-2.7-2.8c-0.7-1-1.3-2.2-1.7-3.5c-0.4-1.3-0.6-2.8-0.6-4.3
			s0.2-3,0.6-4.3c0.4-1.3,1-2.5,1.7-3.5c0.7-1,1.6-2,2.7-2.8s2.2-1.4,3.5-2c1.3-0.5,2.7-0.9,4.2-1.2s3-0.4,4.7-0.4
			c1.3,0,2.5,0.1,3.6,0.2c1.1,0.1,2.2,0.3,3.2,0.6c1,0.2,2,0.5,2.9,0.8s1.9,0.7,2.8,1.1v3c-0.8-0.5-1.6-0.9-2.4-1.4
			c-0.9-0.4-1.8-0.8-2.8-1.1s-2.1-0.6-3.2-0.8c-1.1-0.2-2.4-0.3-3.7-0.3c-2.6,0-4.9,0.3-6.8,0.9c-1.9,0.6-3.5,1.4-4.8,2.4
			c-1.3,1-2.2,2.3-2.8,3.8s-0.9,3.1-0.9,5c0,1.8,0.3,3.5,0.9,5s1.5,2.7,2.8,3.8c1.3,1,2.8,1.8,4.8,2.4c1.9,0.6,4.2,0.8,6.8,0.8
			c1.3,0,2.5-0.1,3.7-0.3c1.2-0.2,2.2-0.4,3.3-0.8c1-0.3,2-0.7,2.8-1.1s1.6-0.9,2.3-1.3v3C217.3,204,216.4,204.4,215.5,204.7z"/>
		<path class="st0" d="M228.2,194.1v11.7h-2.5v-27.3h13.6c2.1,0,3.9,0.2,5.3,0.5c1.5,0.3,2.7,0.8,3.6,1.5c0.9,0.7,1.6,1.5,2.1,2.5
			c0.4,1,0.7,2.1,0.7,3.4c0,2-0.5,3.7-1.6,4.9c-1.1,1.2-2.8,2.1-5.2,2.5l9.3,12.1h-3.1l-8.8-11.8c-0.4,0-0.7,0-1.1,0.1
			c-0.4,0-0.8,0-1.2,0H228.2z M248.5,186.3c0-1.2-0.2-2.1-0.6-2.8c-0.4-0.7-1.1-1.3-2-1.7s-2.1-0.7-3.7-0.8
			c-1.5-0.1-3.4-0.2-5.5-0.2h-8.5v11h8.4c2.2,0,4-0.1,5.6-0.2s2.7-0.4,3.7-0.8c0.9-0.4,1.6-0.9,2-1.7
			C248.3,188.4,248.5,187.5,248.5,186.3z"/>
		<path class="st0" d="M259.6,205.8v-27.3h22.8v2.3h-20.1v9.4h19.1v2.3h-19.1v11h20.4v2.3H259.6z"/>
		<path class="st0" d="M301.4,180.7v25.1H299v-25.1h-12.4v-2.3h27.3v2.3H301.4z"/>
	</g>
	<g>
		<path class="st0" d="M119.7,164.3c0,1.4-0.2,2.6-0.5,3.6c-0.4,1-0.9,1.9-1.5,2.6c-0.6,0.7-1.4,1.3-2.3,1.8c-0.9,0.5-1.9,0.8-3,1.1
			s-2.2,0.4-3.5,0.6s-2.5,0.2-3.8,0.2H84.8v-35.3h19.9c1,0,2,0,3,0.1c1,0.1,2,0.2,2.9,0.5s1.8,0.6,2.6,1c0.8,0.4,1.5,1,2.1,1.6
			c0.6,0.7,1.1,1.5,1.4,2.4s0.5,2.1,0.5,3.3c0,1.1-0.1,2.1-0.4,3c-0.3,0.8-0.7,1.6-1.3,2.2c-0.6,0.6-1.3,1.1-2.2,1.5
			c-0.9,0.4-1.9,0.7-3.1,0.9c1.7,0.1,3.2,0.4,4.4,0.9c1.2,0.5,2.2,1.1,3,1.8c0.8,0.8,1.3,1.7,1.7,2.8
			C119.5,161.8,119.7,163,119.7,164.3z M114.2,147.8c0-0.5,0-1-0.1-1.5c-0.1-0.5-0.2-1-0.5-1.4c-0.2-0.5-0.6-0.9-1-1.3
			c-0.5-0.4-1.1-0.7-1.9-1s-1.8-0.5-2.9-0.7s-2.5-0.2-4.2-0.2H88V154h15.6c2.3,0,4.2-0.2,5.5-0.5c1.4-0.3,2.5-0.8,3.2-1.3
			c0.7-0.6,1.2-1.2,1.5-2S114.2,148.6,114.2,147.8z M116.4,164.2c0-1.3-0.2-2.5-0.7-3.4c-0.5-0.9-1.2-1.7-2.1-2.3
			c-1-0.6-2.2-1-3.7-1.3c-1.5-0.3-3.3-0.4-5.4-0.4H88v14.3h16.9c2.1,0,3.9-0.1,5.4-0.4c1.5-0.2,2.6-0.6,3.5-1.2
			c0.9-0.6,1.5-1.3,1.9-2.1C116.2,166.5,116.4,165.5,116.4,164.2z"/>
		<path class="st0" d="M163,167.8c-0.7,1.4-1.9,2.7-3.3,3.7c-1.5,1-3.3,1.8-5.6,2.4c-2.2,0.6-4.8,0.8-7.8,0.8s-5.6-0.3-7.8-0.8
			c-2.2-0.6-4.1-1.4-5.6-2.4c-1.5-1-2.6-2.3-3.4-3.7c-0.7-1.4-1.1-3.1-1.1-4.8v-24.2h3.2v24.4c0,1.2,0.3,2.3,0.9,3.4s1.6,2,2.8,2.8
			c1.2,0.8,2.8,1.4,4.6,1.9c1.8,0.5,3.9,0.7,6.3,0.7c2.4,0,4.5-0.2,6.3-0.7c1.8-0.5,3.3-1.1,4.6-1.9c1.2-0.8,2.2-1.7,2.8-2.8
			c0.6-1.1,0.9-2.2,0.9-3.4v-24.4h3.2v24.2C164.1,164.7,163.7,166.3,163,167.8z"/>
		<path class="st0" d="M209.5,174L178.8,143V174h-3.2v-35.3h3.5l30.7,31.2v-31.2h3.2V174H209.5z"/>
		<path class="st0" d="M258.7,174L228.1,143V174h-3.2v-35.3h3.5l30.7,31.2v-31.2h3.2V174H258.7z"/>
		<path class="st0" d="M289.8,159.1V174h-3.2v-14.9l-16.6-20.3h3.8l14.4,17.7l14.3-17.7h3.9L289.8,159.1z"/>
	</g>
</g>
</svg>
